<svg xmlns="http://www.w3.org/2000/svg" xmlns:xlink="http://www.w3.org/1999/xlink" width="222.783" height="323.556" viewBox="0 0 167.087 242.667" xml:space="preserve" id="svg2" version="1.1"><defs id="defs41"><radialGradient xlink:href="#linearGradient3773" id="radialGradient3781" cx="-.158" cy="-8.835" fx="-.158" fy="-8.835" r="8" gradientTransform="matrix(-1.58427 -.0235 .03072 -2.47757 -.249 -26.714)" gradientUnits="userSpaceOnUse"/><radialGradient xlink:href="#linearGradient3773" id="radialGradient3957" cx="-.158" cy="-8.835" fx="-.158" fy="-8.835" r="8" gradientTransform="matrix(-1.58427 -.0235 .03072 -2.47757 -.249 -26.714)" gradientUnits="userSpaceOnUse"/><radialGradient r="81.903" fy="509.476" fx="168.025" cy="509.476" cx="168.025" gradientTransform="matrix(1.25656 -.7774 .33664 .53613 -221.202 359.243)" gradientUnits="userSpaceOnUse" id="radialGradient3975" xlink:href="#linearGradient3784-4"/><radialGradient xlink:href="#linearGradient3784-4-5" id="radialGradient3929" gradientUnits="userSpaceOnUse" gradientTransform="matrix(1.25656 -.7774 .33664 .53613 -221.202 359.243)" cx="168.025" cy="509.476" fx="168.025" fy="509.476" r="81.903"/><radialGradient xlink:href="#linearGradient3784-4-1" id="radialGradient3927" gradientUnits="userSpaceOnUse" gradientTransform="matrix(1.25656 -.7774 .33664 .53613 -221.202 359.243)" cx="168.025" cy="509.476" fx="168.025" fy="509.476" r="81.903"/><radialGradient xlink:href="#linearGradient3768" id="radialGradient3776" cx="-.206" cy="-4.579" fx="-.206" fy="-4.579" r="8" gradientTransform="matrix(-1 0 0 -1.72018 -.412 -13.027)" gradientUnits="userSpaceOnUse"/><radialGradient r="81.903" fy="511.223" fx="171.487" cy="511.223" cx="171.487" gradientTransform="matrix(1.15299 -.67392 .39482 .67549 -233.633 270.4)" gradientUnits="userSpaceOnUse" id="radialGradient4013" xlink:href="#linearGradient3784-4-6"/><radialGradient r="81.903" fy="492.632" fx="159.354" cy="492.632" cx="159.354" gradientTransform="matrix(1.08948 -.71514 .44645 .65627 -244.933 290.918)" gradientUnits="userSpaceOnUse" id="radialGradient4013-8" xlink:href="#linearGradient3784-4-2"/><radialGradient r="81.903" fy="492.632" fx="159.354" cy="492.632" cx="159.354" gradientTransform="matrix(1.08948 -.71514 .44645 .65627 -244.933 290.918)" gradientUnits="userSpaceOnUse" id="radialGradient3073" xlink:href="#linearGradient3784-4-2"/><linearGradient id="linearGradient3773"><stop style="stop-color:#000;stop-opacity:1" offset="0" id="stop3775"/><stop style="stop-color:#000;stop-opacity:.648855" offset="1" id="stop3777"/></linearGradient><linearGradient id="linearGradient3959"><stop style="stop-color:#000;stop-opacity:1" offset="0" id="stop3961"/><stop style="stop-color:#000;stop-opacity:.648855" offset="1" id="stop3963"/></linearGradient><linearGradient id="linearGradient3784-4"><stop style="stop-color:#fff;stop-opacity:.435115" offset="0" id="stop3786-8"/><stop style="stop-color:#000;stop-opacity:0" offset="1" id="stop3788-6"/></linearGradient><linearGradient id="linearGradient3784-4-5"><stop style="stop-color:#fff;stop-opacity:.48855" offset="0" id="stop3786-8-0"/><stop style="stop-color:#000;stop-opacity:0" offset="1" id="stop3788-6-3"/></linearGradient><linearGradient id="linearGradient3784-4-1"><stop style="stop-color:#fff;stop-opacity:.236641" offset="0" id="stop3786-8-03"/><stop style="stop-color:#000;stop-opacity:0" offset="1" id="stop3788-6-6"/></linearGradient><linearGradient id="linearGradient3768"><stop style="stop-color:#df0000;stop-opacity:1" offset="0" id="stop3770"/><stop style="stop-color:#df0000;stop-opacity:.671756" offset="1" id="stop3772"/></linearGradient><linearGradient id="linearGradient3784-4-6"><stop style="stop-color:#fff;stop-opacity:.312977" offset="0" id="stop3786-8-8"/><stop style="stop-color:#000;stop-opacity:0" offset="1" id="stop3788-6-8"/></linearGradient><linearGradient id="linearGradient3784-4-2"><stop style="stop-color:#fff;stop-opacity:.290076" offset="0" id="stop3786-8-1"/><stop style="stop-color:#000;stop-opacity:0" offset="1" id="stop3788-6-5"/></linearGradient><filter color-interpolation-filters="sRGB" id="filter3834-6" x="-.139" width="1.279" y="-.162" height="1.325"><feGaussianBlur stdDeviation="9.511" id="feGaussianBlur3836-6"/></filter><filter color-interpolation-filters="sRGB" id="filter3834-6-3" x="-.139" width="1.279" y="-.162" height="1.325"><feGaussianBlur stdDeviation="9.511" id="feGaussianBlur3836-6-3"/></filter></defs><g transform="matrix(.19687 0 0 .19687 11.55 16.87)" id="g3036"><g style="stroke:none" id="layer1-9" transform="matrix(34.67063 0 0 32.44841 363.65 535.398)"><path d="M3.676-9C.433-9 0-5.523 0-5.523S-.433-9-3.676-9C-5.946-9-8-7.441-8-4.5-8-.614-1.42 3.294 0 9 1.352 3.299 8-.614 8-4.5 8-7.441 5.946-9 3.676-9z" id="hl" style="fill:url(#radialGradient3776);fill-opacity:1;stroke:none"/></g><path transform="matrix(1.48425 0 0 1.5371 -80.689 -450.594)" id="path3762-6-4" d="M117.301 604.266s-8.067-94.95 22.857-122.857c34.761-31.369 140-11.429 140-11.429s-71.54 24.838-100 48.572c-27.21 22.692-62.857 85.714-62.857 85.714z" style="fill:url(#radialGradient4013);fill-opacity:1;stroke:none;filter:url(#filter3834-6)"/><path transform="matrix(1.1533 .33783 -.32928 1.40164 422.938 -451.905)" id="path3762-6-2-3" d="M117.301 604.266s-8.067-94.95 22.857-122.857c34.761-31.369 140-11.429 140-11.429s-63.093 37.07-91.552 60.805c-27.21 22.692-71.305 73.481-71.305 73.481z" style="fill:url(#radialGradient3073);fill-opacity:1;stroke:none;filter:url(#filter3834-6-3)"/></g></svg>