<svg xmlns="http://www.w3.org/2000/svg" xmlns:xlink="http://www.w3.org/1999/xlink" width="222.783" height="323.556" viewBox="0 0 167.087 242.667" xml:space="preserve" id="svg2" version="1.1"><defs id="defs41"><radialGradient xlink:href="#linearGradient3773" id="radialGradient3781" cx="-.158" cy="-8.835" fx="-.158" fy="-8.835" r="8" gradientTransform="matrix(-1.58427 -.0235 .03072 -2.47757 -.249 -26.714)" gradientUnits="userSpaceOnUse"/><radialGradient r="8" fy="-8.835" fx="-.158" cy="-8.835" cx="-.158" gradientTransform="matrix(-1.58427 -.0235 .03072 -2.47757 -.249 -26.714)" gradientUnits="userSpaceOnUse" id="radialGradient3990" xlink:href="#linearGradient3773"/><radialGradient xlink:href="#linearGradient3784-4" id="radialGradient3161" gradientUnits="userSpaceOnUse" gradientTransform="matrix(1.25656 -.7774 .33664 .53613 -221.202 359.243)" cx="168.025" cy="509.476" fx="168.025" fy="509.476" r="81.903"/><radialGradient xlink:href="#linearGradient3784-4-5" id="radialGradient3163" gradientUnits="userSpaceOnUse" gradientTransform="matrix(1.25656 -.7774 .33664 .53613 -221.202 359.243)" cx="168.025" cy="509.476" fx="168.025" fy="509.476" r="81.903"/><radialGradient xlink:href="#linearGradient3784-4-1" id="radialGradient3165" gradientUnits="userSpaceOnUse" gradientTransform="matrix(1.25656 -.7774 .33664 .53613 -221.202 359.243)" cx="168.025" cy="509.476" fx="168.025" fy="509.476" r="81.903"/><linearGradient id="linearGradient3773"><stop style="stop-color:#000;stop-opacity:1" offset="0" id="stop3775"/><stop style="stop-color:#000;stop-opacity:.648855" offset="1" id="stop3777"/></linearGradient><linearGradient id="linearGradient3051"><stop style="stop-color:#000;stop-opacity:1" offset="0" id="stop3053"/><stop style="stop-color:#000;stop-opacity:.648855" offset="1" id="stop3055"/></linearGradient><linearGradient id="linearGradient3784-4"><stop style="stop-color:#fff;stop-opacity:.435115" offset="0" id="stop3786-8"/><stop style="stop-color:#000;stop-opacity:0" offset="1" id="stop3788-6"/></linearGradient><linearGradient id="linearGradient3784-4-5"><stop style="stop-color:#fff;stop-opacity:.48855" offset="0" id="stop3786-8-0"/><stop style="stop-color:#000;stop-opacity:0" offset="1" id="stop3788-6-3"/></linearGradient><linearGradient id="linearGradient3784-4-1"><stop style="stop-color:#fff;stop-opacity:.236641" offset="0" id="stop3786-8-03"/><stop style="stop-color:#000;stop-opacity:0" offset="1" id="stop3788-6-6"/></linearGradient><filter color-interpolation-filters="sRGB" id="filter3803" x="-.331" width="1.661" y="-.164" height="1.329"><feGaussianBlur stdDeviation="14.131" id="feGaussianBlur3805"/></filter><filter color-interpolation-filters="sRGB" id="filter3803-1" x="-.331" width="1.661" y="-.164" height="1.329"><feGaussianBlur stdDeviation="14.131" id="feGaussianBlur3805-8"/></filter><filter color-interpolation-filters="sRGB" id="filter3803-73" x="-.331" width="1.661" y="-.164" height="1.329"><feGaussianBlur stdDeviation="14.131" id="feGaussianBlur3805-2"/></filter></defs><g id="Layer_x0020_1" style="fill-rule:nonzero;clip-rule:nonzero;stroke:#000;stroke-miterlimit:4"><path style="fill:#fff;stroke-width:.5px" d="M166.837 235.548c0 3.777-3.087 6.869-6.871 6.869H7.11c-3.775 0-6.861-3.092-6.861-6.87V7.12C.25 3.343 3.336.25 7.11.25h152.856c3.784 0 6.87 3.093 6.87 6.87v228.428z" id="path5"/></g><g transform="translate(10.084 15.429) scale(.19861)" id="g3886"><g style="fill:url(#radialGradient3781);fill-opacity:1" id="layer1-7-1" transform="matrix(31.75408 0 0 29.03312 371.738 526.71)"><path style="fill:url(#radialGradient3990);fill-opacity:1" d="M7.989 3.103C7.747-.954.242-8.59 0-10.5-.242-8.591-7.747-.955-7.989 3.103c-.169 2.868 1.695 4.057 3.39 4.057 1.835-.022 3.35-2.8 3.873-3.341.242.716-1.603 6.682-2.179 6.682h5.811c-.576 0-2.421-5.966-2.179-6.682.457.496 1.797 3.258 3.874 3.341 1.694-.001 3.557-1.189 3.388-4.057z" id="sl-5"/></g><path transform="matrix(1.64246 -1.08237 1.34478 1.57955 -783.504 -14.752)" id="path3762-6" d="M122.357 574.383s-13.123-65.067 17.801-92.974c34.761-31.369 150.112-71.195 150.112-71.195s-81.652 84.604-110.112 108.338c-27.21 22.692-57.801 55.83-57.801 55.83z" style="fill:url(#radialGradient3161);fill-opacity:1;stroke:none;filter:url(#filter3803)"/><path transform="matrix(2.48953 -.12376 1.12846 2.89224 -742.116 -945.228)" id="path3762-6-0" d="M122.357 574.383s-13.123-65.067 17.801-92.974c34.761-31.369 150.112-71.195 150.112-71.195s-81.652 84.604-110.112 108.338c-27.21 22.692-57.801 55.83-57.801 55.83z" style="fill:url(#radialGradient3163);fill-opacity:1;stroke:none;filter:url(#filter3803-1)"/><path transform="matrix(1.9427 -.30841 .5734 1.99365 -290.378 -568.346)" id="path3762-6-2" d="M122.357 574.383s-13.123-65.067 17.801-92.974c34.761-31.369 150.112-71.195 150.112-71.195s-81.652 84.604-110.112 108.338c-27.21 22.692-57.801 55.83-57.801 55.83z" style="fill:url(#radialGradient3165);fill-opacity:1;stroke:none;filter:url(#filter3803-73)"/><path id="rect3865" d="M19.993 106.65v854.281H697.15v-854.28H19.993zm351.75 115.219c7.685 55.453 245.972 277.15 253.657 394.937 5.366 83.267-53.772 117.753-107.563 117.782-65.95-2.415-108.515-82.591-123.031-97-7.685 20.787 50.897 194 69.187 194h-184.5c18.29 0 76.872-173.213 69.188-194-16.58 15.686-64.726 96.373-123 97-53.823 0-112.992-34.515-107.625-117.782C125.74 498.99 364.059 277.293 371.743 221.87z" style="fill:#fffeff;fill-opacity:1;fill-rule:nonzero;stroke:none"/></g><g transform="matrix(1.5086 0 0 1.37933 16.929 45.066)" id="layer1-7"><path id="sl" d="M7.989 3.103C7.747-.954.242-8.59 0-10.5-.242-8.591-7.747-.955-7.989 3.103c-.169 2.868 1.695 4.057 3.39 4.057 1.835-.022 3.35-2.8 3.873-3.341.242.716-1.603 6.682-2.179 6.682h5.811c-.576 0-2.421-5.966-2.179-6.682.457.496 1.797 3.258 3.874 3.341 1.694-.001 3.557-1.189 3.388-4.057z" style="fill:#000"/></g><g transform="matrix(-1.5086 0 0 -1.37933 150.225 198.044)" id="layer1-7-8"><path id="sl-0" d="M7.989 3.103C7.747-.954.242-8.59 0-10.5-.242-8.591-7.747-.955-7.989 3.103c-.169 2.868 1.695 4.057 3.39 4.057 1.835-.022 3.35-2.8 3.873-3.341.242.716-1.603 6.682-2.179 6.682h5.811c-.576 0-2.421-5.966-2.179-6.682.457.496 1.797 3.258 3.874 3.341 1.694-.001 3.557-1.189 3.388-4.057z" style="fill:#000"/></g></svg>