<svg xmlns="http://www.w3.org/2000/svg" xmlns:xlink="http://www.w3.org/1999/xlink" width="222.783" height="323.556" viewBox="0 0 167.087 242.667" xml:space="preserve" id="svg2" version="1.1"><defs id="defs41"><radialGradient xlink:href="#linearGradient2984" id="radialGradient3760" cx="48.231" cy="18.138" fx="48.231" fy="18.138" r="9.5" gradientUnits="userSpaceOnUse" gradientTransform="matrix(-1.56053 .01828 -.02684 -2.29095 123.984 58.81)"/><radialGradient xlink:href="#linearGradient3784" id="radialGradient3792" cx="171.487" cy="511.223" fx="171.487" fy="511.223" r="81.903" gradientTransform="matrix(1.15299 -.67392 .39482 .67549 -233.633 270.4)" gradientUnits="userSpaceOnUse"/><radialGradient r="81.903" fy="511.223" fx="171.487" cy="511.223" cx="171.487" gradientTransform="matrix(1.15299 -.67392 .39482 .67549 -233.633 270.4)" gradientUnits="userSpaceOnUse" id="radialGradient3855" xlink:href="#linearGradient3784-4"/><radialGradient r="81.903" fy="461.841" fx="181.694" cy="461.841" cx="181.694" gradientTransform="matrix(1.15299 -.67392 .39482 .67549 -233.633 270.4)" gradientUnits="userSpaceOnUse" id="radialGradient3916" xlink:href="#linearGradient3784-3"/><linearGradient id="linearGradient2984"><stop style="stop-color:#000;stop-opacity:1" offset="0" id="stop2986"/><stop style="stop-color:#000;stop-opacity:.656489" offset="1" id="stop2988"/></linearGradient><linearGradient id="linearGradient3784"><stop style="stop-color:#fff;stop-opacity:.534351" offset="0" id="stop3786"/><stop style="stop-color:#000;stop-opacity:0" offset="1" id="stop3788"/></linearGradient><linearGradient id="linearGradient3784-4"><stop style="stop-color:#fff;stop-opacity:.519084" offset="0" id="stop3786-8"/><stop style="stop-color:#000;stop-opacity:0" offset="1" id="stop3788-6"/></linearGradient><linearGradient id="linearGradient3784-3"><stop style="stop-color:#fff;stop-opacity:.70229" offset="0" id="stop3786-86"/><stop style="stop-color:#000;stop-opacity:0" offset="1" id="stop3788-2"/></linearGradient><filter color-interpolation-filters="sRGB" id="filter3834" x="-.139" width="1.279" y="-.162" height="1.325"><feGaussianBlur stdDeviation="9.511" id="feGaussianBlur3836"/></filter><filter color-interpolation-filters="sRGB" id="filter3834-6" x="-.139" width="1.279" y="-.162" height="1.325"><feGaussianBlur stdDeviation="9.511" id="feGaussianBlur3836-6"/></filter><filter color-interpolation-filters="sRGB" id="filter3834-7" x="-.139" width="1.279" y="-.162" height="1.325"><feGaussianBlur stdDeviation="9.511" id="feGaussianBlur3836-0"/></filter></defs><g transform="matrix(.20615 0 0 .20615 8.87 16.513)" id="g3804"><g id="layer1-1" transform="matrix(28.96992 0 0 28.96992 -1031.537 -187.377)"><path style="fill:url(#radialGradient3760);fill-opacity:1" d="M50.291 22.698s2.375-1.9 2.375-4.534c0-1.542-1.369-4.102-4.534-4.102s-4.534 2.561-4.534 4.102c0 2.634 2.375 4.534 2.375 4.534-2.638-2.055-7.34-.652-7.34 3.455 0 2.056 1.68 4.318 4.317 4.318 3.165 0 4.534-3.455 4.534-3.455s.402 3.938-1.943 6.046h5.182c-2.345-2.107-1.943-6.046-1.943-6.046s1.37 3.455 4.534 3.455c2.64 0 4.318-2.263 4.318-4.318 0-4.107-4.703-5.51-7.34-3.455z" id="cl"/></g><path transform="matrix(1.10913 0 0 1.20717 -37.35 -111.342)" id="path3762" d="M117.301 604.266s-8.067-94.95 22.857-122.857c34.761-31.369 140-11.429 140-11.429s-71.54 24.838-100 48.572c-27.21 22.692-62.857 85.714-62.857 85.714z" style="fill:url(#radialGradient3792);fill-opacity:1;stroke:none;filter:url(#filter3834)"/><path transform="matrix(1.10913 0 0 1.20717 117.252 -332.265)" id="path3762-6" d="M117.301 604.266s-8.067-94.95 22.857-122.857c34.761-31.369 140-11.429 140-11.429s-71.54 24.838-100 48.572c-27.21 22.692-62.857 85.714-62.857 85.714z" style="fill:url(#radialGradient3855);fill-opacity:1;stroke:none;filter:url(#filter3834-6)"/><path transform="matrix(1.14204 .7029 -.84188 1.36784 729.372 -305.075)" id="path3762-7" d="M117.301 604.266s-8.067-94.95 22.857-122.857c34.761-31.369 140-11.429 140-11.429s-71.54 24.838-100 48.572c-27.21 22.692-62.857 85.714-62.857 85.714z" style="fill:url(#radialGradient3916);fill-opacity:1;stroke:none;filter:url(#filter3834-7)"/><path id="rect3015" d="M28.356 122.025v734.281h667.156v-734.28H28.356zm334.28 97.625c91.69 0 131.376 74.172 131.376 118.844 0 76.307-68.813 131.344-68.813 131.344 76.423-59.533 212.657-18.886 212.657 100.093 0 59.534-48.643 125.094-125.094 125.094-91.69 0-131.344-100.094-131.344-100.094s-11.653 114.117 56.281 175.157H287.574c67.935-61.069 56.313-175.157 56.313-175.157s-39.654 100.094-131.344 100.094c-76.423 0-125.094-65.531-125.094-125.094 0-118.979 136.234-159.626 212.657-100.093 0 0-68.813-55.037-68.813-131.344 0-44.643 39.654-118.844 131.344-118.844z" style="fill:#fffeff;fill-opacity:1;fill-rule:nonzero;stroke:none"/></g></svg>