<svg xmlns="http://www.w3.org/2000/svg" width="222.783" height="323.556" viewBox="0 0 167.087 242.667" xml:space="preserve" id="svg2" version="1.1"><g id="Layer_x0020_1" style="fill-rule:nonzero;clip-rule:nonzero;stroke:#000;stroke-miterlimit:4"><path style="fill:#fff;stroke-width:.5px" d="M166.837 235.548c0 3.777-3.087 6.869-6.871 6.869H7.11c-3.775 0-6.861-3.092-6.861-6.87V7.12C.25 3.343 3.336.25 7.11.25h152.856c3.784 0 6.87 3.093 6.87 6.87v228.428z" id="path5"/></g><text xml:space="preserve" style="letter-spacing:0;word-spacing:0;fill:#000;fill-opacity:1;stroke:none;font-family:Bitstream Vera Sans;font-size:32px;font-style:normal;font-weight:400;line-height:125%" x="3.945" y="27.356" id="text3788"><tspan id="tspan3790" x="3.945" y="27.356" style="font-variant:normal;-inkscape-font-specification:LMMathSymbols9 Bold Italic;font-family:LMMathSymbols9;font-style:italic;font-weight:700;font-stretch:100%">J</tspan></text><g transform="rotate(45 -55.461 188.53) scale(3.21193 2.9367)" id="layer1-7-88"><path id="sl-4" d="M7.989 3.103C7.747-.954.242-8.59 0-10.5-.242-8.591-7.747-.955-7.989 3.103c-.169 2.868 1.695 4.057 3.39 4.057 1.835-.022 3.35-2.8 3.873-3.341.242.716-1.603 6.682-2.179 6.682h5.811c-.576 0-2.421-5.966-2.179-6.682.457.496 1.797 3.258 3.874 3.341 1.694-.001 3.557-1.189 3.388-4.057z" style="fill:#000"/></g><text xml:space="preserve" style="letter-spacing:0;word-spacing:0;fill:#000;fill-opacity:1;stroke:none;font-family:Bitstream Vera Sans;font-size:32px;font-style:normal;font-weight:400;line-height:125%" x="4.273" y="49.051" id="text3019"><tspan id="tspan3021" x="4.273" y="49.051" style="font-variant:normal;-inkscape-font-specification:URW Chancery L Bold Italic;font-family:URW Chancery L;font-size:38.4px;font-style:italic;font-weight:700;font-stretch:100%">o</tspan></text><text xml:space="preserve" style="letter-spacing:0;word-spacing:0;fill:#000;fill-opacity:1;stroke:none;font-family:Bitstream Vera Sans;font-size:32px;font-style:normal;font-weight:400;line-height:125%" x="2.63" y="76.992" id="text3023"><tspan id="tspan3025" x="2.63" y="76.992" style="font-variant:normal;-inkscape-font-specification:URW Chancery L Bold Italic;font-family:URW Chancery L;font-size:38.4px;font-style:italic;font-weight:700;font-stretch:100%">k</tspan></text><text xml:space="preserve" style="letter-spacing:0;word-spacing:0;fill:#000;fill-opacity:1;stroke:none;font-family:Bitstream Vera Sans;font-size:32px;font-style:normal;font-weight:400;line-height:125%" x="2.63" y="99.345" id="text3027"><tspan id="tspan3029" x="2.63" y="99.345" style="font-variant:normal;-inkscape-font-specification:URW Chancery L Bold Italic;font-family:URW Chancery L;font-size:38.4px;font-style:italic;font-weight:700;font-stretch:100%">e</tspan></text><text xml:space="preserve" style="letter-spacing:0;word-spacing:0;fill:#000;fill-opacity:1;stroke:none;font-family:Bitstream Vera Sans;font-size:32px;font-style:normal;font-weight:400;line-height:125%" x="2.301" y="120.383" id="text3031"><tspan id="tspan3033" x="2.301" y="120.383" style="font-variant:normal;-inkscape-font-specification:URW Chancery L Bold Italic;font-family:URW Chancery L;font-size:38.4px;font-style:italic;font-weight:700;font-stretch:100%">r</tspan></text><g transform="rotate(-45 145.134 -23.864) scale(3.35788 3.14265)" id="layer1-9"><path style="fill:#df0000" id="hl" d="M3.676-9C.433-9 0-5.523 0-5.523S-.433-9-3.676-9C-5.946-9-8-7.441-8-4.5-8-.614-1.42 3.294 0 9 1.352 3.299 8-.614 8-4.5 8-7.441 5.946-9 3.676-9z"/></g><g transform="scale(-3.03455) rotate(45 103.477 -94.218)" id="layer1-1"><path id="cl" d="M50.291 22.698s2.375-1.9 2.375-4.534c0-1.542-1.369-4.102-4.534-4.102s-4.534 2.561-4.534 4.102c0 2.634 2.375 4.534 2.375 4.534-2.638-2.055-7.34-.652-7.34 3.455 0 2.056 1.68 4.318 4.317 4.318 3.165 0 4.534-3.455 4.534-3.455s.402 3.938-1.943 6.046h5.182c-2.345-2.107-1.943-6.046-1.943-6.046s1.37 3.455 4.534 3.455c2.64 0 4.318-2.263 4.318-4.318 0-4.107-4.703-5.51-7.34-3.455z" style="fill:#000"/></g><g transform="scale(3.16079) rotate(-45 78.273 -20.28)" id="layer1-2"><path style="fill:#df0000" id="dl" d="M3.243-4.725C1.126-7.59 0-10.5 0-10.5s-1.126 2.91-3.243 5.775C-5.361-1.862-8 0-8 0s2.639 1.861 4.757 4.726C-1.126 7.59 0 10.5 0 10.5s1.126-2.91 3.243-5.774C5.361 1.861 8 0 8 0S5.361-1.862 3.243-4.725z"/></g><text xml:space="preserve" style="letter-spacing:0;word-spacing:0;fill:#000;fill-opacity:1;stroke:none;font-family:Bitstream Vera Sans;font-size:32px;font-style:normal;font-weight:400;line-height:125%" x="-163.716" y="-215.002" id="text3788-8" transform="scale(-1)"><tspan id="tspan3790-8" x="-163.716" y="-215.002" style="font-variant:normal;-inkscape-font-specification:LMMathSymbols9 Bold Italic;font-family:LMMathSymbols9;font-style:italic;font-weight:700;font-stretch:100%">J</tspan></text><text xml:space="preserve" style="letter-spacing:0;word-spacing:0;fill:#000;fill-opacity:1;stroke:none;font-family:Bitstream Vera Sans;font-size:32px;font-style:normal;font-weight:400;line-height:125%" x="-163.387" y="-193.306" id="text3019-4" transform="scale(-1)"><tspan id="tspan3021-3" x="-163.387" y="-193.306" style="font-variant:normal;-inkscape-font-specification:URW Chancery L Bold Italic;font-family:URW Chancery L;font-size:38.4px;font-style:italic;font-weight:700;font-stretch:100%">o</tspan></text><text xml:space="preserve" style="letter-spacing:0;word-spacing:0;fill:#000;fill-opacity:1;stroke:none;font-family:Bitstream Vera Sans;font-size:32px;font-style:normal;font-weight:400;line-height:125%" x="-165.031" y="-165.365" id="text3023-1" transform="scale(-1)"><tspan id="tspan3025-4" x="-165.031" y="-165.365" style="font-variant:normal;-inkscape-font-specification:URW Chancery L Bold Italic;font-family:URW Chancery L;font-size:38.4px;font-style:italic;font-weight:700;font-stretch:100%">k</tspan></text><text xml:space="preserve" style="letter-spacing:0;word-spacing:0;fill:#000;fill-opacity:1;stroke:none;font-family:Bitstream Vera Sans;font-size:32px;font-style:normal;font-weight:400;line-height:125%" x="-165.031" y="-143.012" id="text3027-9" transform="scale(-1)"><tspan id="tspan3029-2" x="-165.031" y="-143.012" style="font-variant:normal;-inkscape-font-specification:URW Chancery L Bold Italic;font-family:URW Chancery L;font-size:38.4px;font-style:italic;font-weight:700;font-stretch:100%">e</tspan></text><text xml:space="preserve" style="letter-spacing:0;word-spacing:0;fill:#000;fill-opacity:1;stroke:none;font-family:Bitstream Vera Sans;font-size:32px;font-style:normal;font-weight:400;line-height:125%" x="-165.36" y="-121.974" id="text3031-0" transform="scale(-1)"><tspan id="tspan3033-6" x="-165.36" y="-121.974" style="font-variant:normal;-inkscape-font-specification:URW Chancery L Bold Italic;font-family:URW Chancery L;font-size:38.4px;font-style:italic;font-weight:700;font-stretch:100%">r</tspan></text></svg>