<svg xmlns="http://www.w3.org/2000/svg" xmlns:xlink="http://www.w3.org/1999/xlink" width="222.783" height="323.556" viewBox="0 0 167.087 242.667" xml:space="preserve" id="svg2" version="1.1"><defs id="defs41"><radialGradient xlink:href="#linearGradient2984" id="radialGradient3760" cx="48.231" cy="18.138" fx="48.231" fy="18.138" r="9.5" gradientUnits="userSpaceOnUse" gradientTransform="matrix(-1.56053 .01828 -.02684 -2.29095 123.984 58.81)"/><radialGradient xlink:href="#linearGradient3784" id="radialGradient3792" cx="171.487" cy="511.223" fx="171.487" fy="511.223" r="81.903" gradientTransform="matrix(1.15299 -.67392 .39482 .67549 -233.633 270.4)" gradientUnits="userSpaceOnUse"/><radialGradient r="81.903" fy="511.223" fx="171.487" cy="511.223" cx="171.487" gradientTransform="matrix(1.15299 -.67392 .39482 .67549 -233.633 270.4)" gradientUnits="userSpaceOnUse" id="radialGradient3855" xlink:href="#linearGradient3784-4"/><radialGradient r="81.903" fy="461.841" fx="181.694" cy="461.841" cx="181.694" gradientTransform="matrix(1.15299 -.67392 .39482 .67549 -233.633 270.4)" gradientUnits="userSpaceOnUse" id="radialGradient3916" xlink:href="#linearGradient3784-3"/><linearGradient id="linearGradient2984"><stop style="stop-color:#000;stop-opacity:1" offset="0" id="stop2986"/><stop style="stop-color:#000;stop-opacity:.656489" offset="1" id="stop2988"/></linearGradient><linearGradient id="linearGradient3784"><stop style="stop-color:#fff;stop-opacity:.534351" offset="0" id="stop3786"/><stop style="stop-color:#000;stop-opacity:0" offset="1" id="stop3788"/></linearGradient><linearGradient id="linearGradient3784-4"><stop style="stop-color:#fff;stop-opacity:.519084" offset="0" id="stop3786-8"/><stop style="stop-color:#000;stop-opacity:0" offset="1" id="stop3788-6"/></linearGradient><linearGradient id="linearGradient3784-3"><stop style="stop-color:#fff;stop-opacity:.70229" offset="0" id="stop3786-86"/><stop style="stop-color:#000;stop-opacity:0" offset="1" id="stop3788-2"/></linearGradient></defs><g id="Layer_x0020_1" style="fill-rule:nonzero;clip-rule:nonzero;stroke:#000;stroke-miterlimit:4"><path style="fill:#fff;stroke-width:.5px" d="M166.837 235.548c0 3.777-3.087 6.869-6.871 6.869H7.11c-3.775 0-6.861-3.092-6.861-6.87V7.12C.25 3.343 3.336.25 7.11.25h152.856c3.784 0 6.87 3.093 6.87 6.87v228.428z" id="path5"/></g><g transform="translate(-54.025 10.018) scale(1.48565)" id="layer1-1-4"><path id="cl-9" d="M50.291 22.698s2.375-1.9 2.375-4.534c0-1.542-1.369-4.102-4.534-4.102s-4.534 2.561-4.534 4.102c0 2.634 2.375 4.534 2.375 4.534-2.638-2.055-7.34-.652-7.34 3.455 0 2.056 1.68 4.318 4.317 4.318 3.165 0 4.534-3.455 4.534-3.455s.402 3.938-1.943 6.046h5.182c-2.345-2.107-1.943-6.046-1.943-6.046s1.37 3.455 4.534 3.455c2.64 0 4.318-2.263 4.318-4.318 0-4.107-4.703-5.51-7.34-3.455z" style="fill:#000"/></g><g transform="rotate(180 110.6 116.23) scale(1.48565)" id="layer1-1-4-1"><path id="cl-9-7" d="M50.291 22.698s2.375-1.9 2.375-4.534c0-1.542-1.369-4.102-4.534-4.102s-4.534 2.561-4.534 4.102c0 2.634 2.375 4.534 2.375 4.534-2.638-2.055-7.34-.652-7.34 3.455 0 2.056 1.68 4.318 4.317 4.318 3.165 0 4.534-3.455 4.534-3.455s.402 3.938-1.943 6.046h5.182c-2.345-2.107-1.943-6.046-1.943-6.046s1.37 3.455 4.534 3.455c2.64 0 4.318-2.263 4.318-4.318 0-4.107-4.703-5.51-7.34-3.455z" style="fill:#000"/></g><path style="fill:#000" d="M57.573 25.1s5.967-4.774 5.967-11.392C63.54 9.834 60.1 3.4 52.148 3.4S40.756 9.836 40.756 13.708c0 6.618 5.968 11.392 5.968 11.392-6.629-5.163-18.445-1.638-18.445 8.68 0 5.167 4.22 10.85 10.849 10.85 7.952 0 11.392-8.68 11.392-8.68s1.01 9.894-4.882 15.19h13.02c-5.892-5.294-4.882-15.19-4.882-15.19s3.44 8.68 11.392 8.68c6.631 0 10.85-5.686 10.85-10.85 0-10.318-11.817-13.843-18.445-8.68z" id="cl-9-8"/><path style="fill:#000" d="M57.11 93.2s5.968-4.773 5.968-11.391c0-3.875-3.44-10.307-11.392-10.307-7.953 0-11.392 6.435-11.392 10.307 0 6.618 5.967 11.392 5.967 11.392-6.628-5.164-18.445-1.638-18.445 8.68 0 5.167 4.221 10.85 10.85 10.85 7.952 0 11.392-8.68 11.392-8.68s1.01 9.894-4.882 15.19h13.02c-5.892-5.294-4.882-15.19-4.882-15.19s3.44 8.68 11.392 8.68c6.63 0 10.85-5.686 10.85-10.85 0-10.318-11.817-13.844-18.446-8.68z" id="cl-9-8-0"/><path style="fill:#000" d="M121.558 24.926s5.967-4.774 5.967-11.392c0-3.874-3.44-10.306-11.392-10.306s-11.392 6.434-11.392 10.306c0 6.618 5.968 11.392 5.968 11.392-6.629-5.163-18.445-1.638-18.445 8.681 0 5.166 4.22 10.85 10.85 10.85 7.951 0 11.391-8.681 11.391-8.681s1.01 9.894-4.882 15.19h13.02c-5.892-5.293-4.882-15.19-4.882-15.19s3.44 8.68 11.392 8.68c6.631 0 10.85-5.685 10.85-10.849 0-10.319-11.817-13.844-18.445-8.68z" id="cl-9-8-9"/><path style="fill:#000" d="M121.558 93.027s5.967-4.774 5.967-11.392c0-3.874-3.44-10.307-11.392-10.307s-11.392 6.435-11.392 10.307c0 6.618 5.968 11.392 5.968 11.392-6.629-5.163-18.445-1.638-18.445 8.681 0 5.166 4.22 10.85 10.85 10.85 7.951 0 11.391-8.682 11.391-8.682s1.01 9.895-4.882 15.191h13.02c-5.892-5.294-4.882-15.19-4.882-15.19s3.44 8.68 11.392 8.68c6.631 0 10.85-5.686 10.85-10.849 0-10.32-11.817-13.844-18.445-8.681z" id="cl-9-8-0-4"/><path style="fill:#000" d="M89.577 59.281s5.967-4.774 5.967-11.392c0-3.874-3.44-10.307-11.392-10.307S72.76 44.017 72.76 47.89c0 6.618 5.967 11.392 5.967 11.392-6.628-5.163-18.444-1.638-18.444 8.681 0 5.166 4.22 10.85 10.849 10.85 7.952 0 11.392-8.682 11.392-8.682s1.01 9.895-4.882 15.191h13.02c-5.892-5.294-4.882-15.19-4.882-15.19s3.44 8.68 11.392 8.68c6.631 0 10.85-5.686 10.85-10.849 0-10.32-11.817-13.844-18.445-8.68z" id="cl-9-8-8"/><path style="fill:#000" d="M110.063 217.802s-5.968 4.774-5.968 11.392c0 3.875 3.44 10.307 11.392 10.307 7.953 0 11.392-6.435 11.392-10.307 0-6.618-5.967-11.392-5.967-11.392 6.628 5.164 18.445 1.638 18.445-8.68 0-5.167-4.221-10.85-10.85-10.85-7.952 0-11.392 8.68-11.392 8.68s-1.01-9.894 4.882-15.19h-13.02c5.892 5.294 4.882 15.19 4.882 15.19s-3.44-8.68-11.392-8.68c-6.63 0-10.85 5.686-10.85 10.85 0 10.318 11.817 13.844 18.446 8.68z" id="cl-9-8-4"/><path style="fill:#000" d="M110.708 149.701s-5.967 4.774-5.967 11.392c0 3.875 3.44 10.307 11.392 10.307s11.392-6.435 11.392-10.307c0-6.618-5.967-11.392-5.967-11.392 6.628 5.164 18.444 1.639 18.444-8.68 0-5.166-4.22-10.85-10.849-10.85-7.952 0-11.392 8.681-11.392 8.681s-1.01-9.894 4.882-15.191h-13.02c5.892 5.294 4.882 15.191 4.882 15.191s-3.44-8.68-11.392-8.68c-6.63 0-10.85 5.685-10.85 10.848 0 10.32 11.817 13.845 18.445 8.681z" id="cl-9-8-0-2"/><path style="fill:#000" d="M46.078 217.976s-5.968 4.773-5.968 11.392c0 3.874 3.44 10.306 11.392 10.306 7.953 0 11.392-6.435 11.392-10.306 0-6.619-5.967-11.392-5.967-11.392 6.628 5.163 18.445 1.638 18.445-8.681 0-5.166-4.221-10.85-10.85-10.85-7.952 0-11.392 8.681-11.392 8.681s-1.01-9.894 4.882-15.19h-13.02c5.892 5.293 4.882 15.19 4.882 15.19s-3.44-8.68-11.392-8.68c-6.63 0-10.85 5.685-10.85 10.849 0 10.319 11.817 13.844 18.446 8.68z" id="cl-9-8-9-6"/><path style="fill:#000" d="M46.261 149.875s-5.967 4.774-5.967 11.392c0 3.875 3.44 10.307 11.392 10.307s11.392-6.435 11.392-10.307c0-6.618-5.968-11.392-5.968-11.392 6.629 5.163 18.445 1.638 18.445-8.68 0-5.167-4.22-10.85-10.849-10.85-7.952 0-11.392 8.68-11.392 8.68s-1.01-9.894 4.882-15.19h-13.02c5.892 5.294 4.882 15.19 4.882 15.19s-3.44-8.68-11.392-8.68c-6.631 0-10.85 5.686-10.85 10.85 0 10.318 11.817 13.843 18.445 8.68z" id="cl-9-8-0-4-9"/><text xml:space="preserve" style="letter-spacing:0;word-spacing:0;fill:#000;fill-opacity:1;stroke:none;font-family:Bitstream Vera Sans;font-size:32px;font-style:normal;font-weight:400;line-height:125%" x="-1.162" y="27.17" id="text3788"><tspan id="tspan3790" x="-1.162" y="27.17" style="font-variant:normal;-inkscape-font-specification:Arial;font-family:Arial;font-style:normal;font-weight:400;font-stretch:100%">1</tspan></text><text xml:space="preserve" style="letter-spacing:0;word-spacing:0;fill:#000;fill-opacity:1;stroke:none;font-family:Bitstream Vera Sans;font-size:32px;font-style:normal;font-weight:400;line-height:125%" x="11" y="27.499" id="text3038"><tspan id="tspan3040" x="11" y="27.499">0</tspan></text><path style="fill:#000" d="M78.07 183.938s-5.968 4.773-5.968 11.392c0 3.874 3.44 10.306 11.392 10.306 7.953 0 11.392-6.434 11.392-10.306 0-6.619-5.967-11.392-5.967-11.392 6.628 5.163 18.445 1.638 18.445-8.681 0-5.166-4.221-10.85-10.85-10.85-7.952 0-11.391 8.681-11.391 8.681s-1.01-9.894 4.882-15.19h-13.02c5.891 5.293 4.881 15.19 4.881 15.19s-3.44-8.68-11.392-8.68c-6.63 0-10.849 5.685-10.849 10.849 0 10.319 11.817 13.844 18.445 8.68z" id="cl-9-8-8-8"/><text xml:space="preserve" style="letter-spacing:0;word-spacing:0;fill:#000;fill-opacity:1;stroke:none;font-family:Bitstream Vera Sans;font-size:32px;font-style:normal;font-weight:400;line-height:125%" x="-168.809" y="-216.226" id="text3788-0" transform="scale(-1)"><tspan id="tspan3790-6" x="-168.809" y="-216.226" style="font-variant:normal;-inkscape-font-specification:Arial;font-family:Arial;font-style:normal;font-weight:400;font-stretch:100%">1</tspan></text><text xml:space="preserve" style="letter-spacing:0;word-spacing:0;fill:#000;fill-opacity:1;stroke:none;font-family:Bitstream Vera Sans;font-size:32px;font-style:normal;font-weight:400;line-height:125%" x="-156.646" y="-215.897" id="text3038-8" transform="scale(-1)"><tspan id="tspan3040-9" x="-156.646" y="-215.897">0</tspan></text></svg>