<svg xmlns="http://www.w3.org/2000/svg" width="222.783" height="323.556" viewBox="0 0 167.087 242.667" xml:space="preserve" id="svg2" version="1.1"><g id="Layer_x0020_1" style="fill-rule:nonzero;clip-rule:nonzero;stroke:#000;stroke-miterlimit:4"><path style="fill:#fff;stroke-width:.5px" d="M166.837 235.548c0 3.777-3.087 6.869-6.871 6.869H7.11c-3.775 0-6.861-3.092-6.861-6.87V7.12C.25 3.343 3.336.25 7.11.25h152.856c3.784 0 6.87 3.093 6.87 6.87v228.428z" id="path5"/></g><text xml:space="preserve" style="letter-spacing:0;word-spacing:0;fill:#000;fill-opacity:1;stroke:none;font-family:Bitstream Vera Sans;font-size:32px;font-style:normal;font-weight:400;line-height:125%" x="8.547" y="28.013" id="text3788"><tspan id="tspan3790" x="8.547" y="28.013" style="font-variant:normal;-inkscape-font-specification:Arial;font-family:Arial;font-style:normal;font-weight:400;font-stretch:100%">2</tspan></text><g transform="matrix(1.5086 0 0 1.37933 16.929 45.066)" id="layer1-7"><path id="sl" d="M7.989 3.103C7.747-.954.242-8.59 0-10.5-.242-8.591-7.747-.955-7.989 3.103c-.169 2.868 1.695 4.057 3.39 4.057 1.835-.022 3.35-2.8 3.873-3.341.242.716-1.603 6.682-2.179 6.682h5.811c-.576 0-2.421-5.966-2.179-6.682.457.496 1.797 3.258 3.874 3.341 1.694-.001 3.557-1.189 3.388-4.057z" style="fill:#000"/></g><g transform="matrix(2.64868 0 0 2.42172 83.41 57.366)" id="layer1-7-88"><path id="sl-4" d="M7.989 3.103C7.747-.954.242-8.59 0-10.5-.242-8.591-7.747-.955-7.989 3.103c-.169 2.868 1.695 4.057 3.39 4.057 1.835-.022 3.35-2.8 3.873-3.341.242.716-1.603 6.682-2.179 6.682h5.811c-.576 0-2.421-5.966-2.179-6.682.457.496 1.797 3.258 3.874 3.341 1.694-.001 3.557-1.189 3.388-4.057z" style="fill:#000"/></g><text xml:space="preserve" style="letter-spacing:0;word-spacing:0;fill:#000;fill-opacity:1;stroke:none;font-family:Bitstream Vera Sans;font-size:32px;font-style:normal;font-weight:400;line-height:125%" x="-158.978" y="-215.124" id="text3788-7" transform="scale(-1)"><tspan id="tspan3790-6" x="-158.978" y="-215.124" style="font-variant:normal;-inkscape-font-specification:Arial;font-family:Arial;font-style:normal;font-weight:400;font-stretch:100%">2</tspan></text><g transform="matrix(-1.5086 0 0 -1.37933 150.225 198.044)" id="layer1-7-3"><path id="sl-1" d="M7.989 3.103C7.747-.954.242-8.59 0-10.5-.242-8.591-7.747-.955-7.989 3.103c-.169 2.868 1.695 4.057 3.39 4.057 1.835-.022 3.35-2.8 3.873-3.341.242.716-1.603 6.682-2.179 6.682h5.811c-.576 0-2.421-5.966-2.179-6.682.457.496 1.797 3.258 3.874 3.341 1.694-.001 3.557-1.189 3.388-4.057z" style="fill:#000"/></g><g transform="matrix(-2.64868 0 0 -2.42172 83.456 185.771)" id="layer1-7-88-7"><path id="sl-4-5" d="M7.989 3.103C7.747-.954.242-8.59 0-10.5-.242-8.591-7.747-.955-7.989 3.103c-.169 2.868 1.695 4.057 3.39 4.057 1.835-.022 3.35-2.8 3.873-3.341.242.716-1.603 6.682-2.179 6.682h5.811c-.576 0-2.421-5.966-2.179-6.682.457.496 1.797 3.258 3.874 3.341 1.694-.001 3.557-1.189 3.388-4.057z" style="fill:#000"/></g></svg>