<svg xmlns="http://www.w3.org/2000/svg" xmlns:xlink="http://www.w3.org/1999/xlink" width="222.783" height="323.556" viewBox="0 0 167.087 242.667" xml:space="preserve" id="svg2" version="1.1"><defs id="defs41"><radialGradient xlink:href="#linearGradient2984" id="radialGradient3760" cx="48.231" cy="18.138" fx="48.231" fy="18.138" r="9.5" gradientUnits="userSpaceOnUse" gradientTransform="matrix(-1.56053 .01828 -.02684 -2.29095 123.984 58.81)"/><radialGradient xlink:href="#linearGradient3784" id="radialGradient3792" cx="171.487" cy="511.223" fx="171.487" fy="511.223" r="81.903" gradientTransform="matrix(1.15299 -.67392 .39482 .67549 -233.633 270.4)" gradientUnits="userSpaceOnUse"/><radialGradient r="81.903" fy="511.223" fx="171.487" cy="511.223" cx="171.487" gradientTransform="matrix(1.15299 -.67392 .39482 .67549 -233.633 270.4)" gradientUnits="userSpaceOnUse" id="radialGradient3855" xlink:href="#linearGradient3784-4"/><radialGradient r="81.903" fy="461.841" fx="181.694" cy="461.841" cx="181.694" gradientTransform="matrix(1.15299 -.67392 .39482 .67549 -233.633 270.4)" gradientUnits="userSpaceOnUse" id="radialGradient3916" xlink:href="#linearGradient3784-3"/><linearGradient id="linearGradient2984"><stop style="stop-color:#000;stop-opacity:1" offset="0" id="stop2986"/><stop style="stop-color:#000;stop-opacity:.656489" offset="1" id="stop2988"/></linearGradient><linearGradient id="linearGradient3784"><stop style="stop-color:#fff;stop-opacity:.534351" offset="0" id="stop3786"/><stop style="stop-color:#000;stop-opacity:0" offset="1" id="stop3788"/></linearGradient><linearGradient id="linearGradient3784-4"><stop style="stop-color:#fff;stop-opacity:.519084" offset="0" id="stop3786-8"/><stop style="stop-color:#000;stop-opacity:0" offset="1" id="stop3788-6"/></linearGradient><linearGradient id="linearGradient3784-3"><stop style="stop-color:#fff;stop-opacity:.70229" offset="0" id="stop3786-86"/><stop style="stop-color:#000;stop-opacity:0" offset="1" id="stop3788-2"/></linearGradient></defs><g id="Layer_x0020_1" style="fill-rule:nonzero;clip-rule:nonzero;stroke:#000;stroke-miterlimit:4"><path style="fill:#fff;stroke-width:.5px" d="M166.837 235.548c0 3.777-3.087 6.869-6.871 6.869H7.11c-3.775 0-6.861-3.092-6.861-6.87V7.12C.25 3.343 3.336.25 7.11.25h152.856c3.784 0 6.87 3.093 6.87 6.87v228.428z" id="path5"/></g><text xml:space="preserve" style="letter-spacing:0;word-spacing:0;fill:#000;fill-opacity:1;stroke:none;font-family:Bitstream Vera Sans;font-size:32px;font-style:normal;font-weight:400;line-height:125%" x="8.311" y="27.548" id="text3788"><tspan id="tspan3790" x="8.311" y="27.548" style="font-variant:normal;-inkscape-font-specification:Arial;font-family:Arial;font-style:normal;font-weight:400;font-stretch:100%">4</tspan></text><g transform="translate(-54.025 10.018) scale(1.48565)" id="layer1-1-4"><path id="cl-9" d="M50.291 22.698s2.375-1.9 2.375-4.534c0-1.542-1.369-4.102-4.534-4.102s-4.534 2.561-4.534 4.102c0 2.634 2.375 4.534 2.375 4.534-2.638-2.055-7.34-.652-7.34 3.455 0 2.056 1.68 4.318 4.317 4.318 3.165 0 4.534-3.455 4.534-3.455s.402 3.938-1.943 6.046h5.182c-2.345-2.107-1.943-6.046-1.943-6.046s1.37 3.455 4.534 3.455c2.64 0 4.318-2.263 4.318-4.318 0-4.107-4.703-5.51-7.34-3.455z" style="fill:#000"/></g><text xml:space="preserve" style="letter-spacing:0;word-spacing:0;fill:#000;fill-opacity:1;stroke:none;font-family:Bitstream Vera Sans;font-size:32px;font-style:normal;font-weight:400;line-height:125%" x="-158.864" y="-214.467" id="text3788-8" transform="scale(-1)"><tspan id="tspan3790-7" x="-158.864" y="-214.467" style="font-variant:normal;-inkscape-font-specification:Arial;font-family:Arial;font-style:normal;font-weight:400;font-stretch:100%">4</tspan></text><g transform="rotate(180 110.6 116.23) scale(1.48565)" id="layer1-1-4-1"><path id="cl-9-7" d="M50.291 22.698s2.375-1.9 2.375-4.534c0-1.542-1.369-4.102-4.534-4.102s-4.534 2.561-4.534 4.102c0 2.634 2.375 4.534 2.375 4.534-2.638-2.055-7.34-.652-7.34 3.455 0 2.056 1.68 4.318 4.317 4.318 3.165 0 4.534-3.455 4.534-3.455s.402 3.938-1.943 6.046h5.182c-2.345-2.107-1.943-6.046-1.943-6.046s1.37 3.455 4.534 3.455c2.64 0 4.318-2.263 4.318-4.318 0-4.107-4.703-5.51-7.34-3.455z" style="fill:#000"/></g><g transform="matrix(2.51258 0 0 2.51258 -67.188 -1.531)" id="layer1-1-4-8"><path id="cl-9-8" d="M50.291 22.698s2.375-1.9 2.375-4.534c0-1.542-1.369-4.102-4.534-4.102s-4.534 2.561-4.534 4.102c0 2.634 2.375 4.534 2.375 4.534-2.638-2.055-7.34-.652-7.34 3.455 0 2.056 1.68 4.318 4.317 4.318 3.165 0 4.534-3.455 4.534-3.455s.402 3.938-1.943 6.046h5.182c-2.345-2.107-1.943-6.046-1.943-6.046s1.37 3.455 4.534 3.455c2.64 0 4.318-2.263 4.318-4.318 0-4.107-4.703-5.51-7.34-3.455z" style="fill:#000"/></g><g transform="matrix(-2.51258 0 0 -2.51258 174.73 245.275)" id="layer1-1-4-8-0"><path id="cl-9-8-6" d="M50.291 22.698s2.375-1.9 2.375-4.534c0-1.542-1.369-4.102-4.534-4.102s-4.534 2.561-4.534 4.102c0 2.634 2.375 4.534 2.375 4.534-2.638-2.055-7.34-.652-7.34 3.455 0 2.056 1.68 4.318 4.317 4.318 3.165 0 4.534-3.455 4.534-3.455s.402 3.938-1.943 6.046h5.182c-2.345-2.107-1.943-6.046-1.943-6.046s1.37 3.455 4.534 3.455c2.64 0 4.318-2.263 4.318-4.318 0-4.107-4.703-5.51-7.34-3.455z" style="fill:#000"/></g><g transform="matrix(2.51258 0 0 2.51258 -9.112 -1.531)" id="layer1-1-4-8-2"><path id="cl-9-8-66" d="M50.291 22.698s2.375-1.9 2.375-4.534c0-1.542-1.369-4.102-4.534-4.102s-4.534 2.561-4.534 4.102c0 2.634 2.375 4.534 2.375 4.534-2.638-2.055-7.34-.652-7.34 3.455 0 2.056 1.68 4.318 4.317 4.318 3.165 0 4.534-3.455 4.534-3.455s.402 3.938-1.943 6.046h5.182c-2.345-2.107-1.943-6.046-1.943-6.046s1.37 3.455 4.534 3.455c2.64 0 4.318-2.263 4.318-4.318 0-4.107-4.703-5.51-7.34-3.455z" style="fill:#000"/></g><g transform="matrix(-2.51258 0 0 -2.51258 232.806 245.275)" id="layer1-1-4-8-0-4"><path id="cl-9-8-6-9" d="M50.291 22.698s2.375-1.9 2.375-4.534c0-1.542-1.369-4.102-4.534-4.102s-4.534 2.561-4.534 4.102c0 2.634 2.375 4.534 2.375 4.534-2.638-2.055-7.34-.652-7.34 3.455 0 2.056 1.68 4.318 4.317 4.318 3.165 0 4.534-3.455 4.534-3.455s.402 3.938-1.943 6.046h5.182c-2.345-2.107-1.943-6.046-1.943-6.046s1.37 3.455 4.534 3.455c2.64 0 4.318-2.263 4.318-4.318 0-4.107-4.703-5.51-7.34-3.455z" style="fill:#000"/></g></svg>