<svg xmlns="http://www.w3.org/2000/svg" xmlns:xlink="http://www.w3.org/1999/xlink" width="222.783" height="323.556" viewBox="0 0 167.087 242.667" xml:space="preserve" id="svg2" version="1.1"><defs id="defs41"><linearGradient id="linearGradient3773"><stop style="stop-color:#000;stop-opacity:1" offset="0" id="stop3775"/><stop style="stop-color:#000;stop-opacity:.648855" offset="1" id="stop3777"/></linearGradient><linearGradient id="linearGradient3959"><stop style="stop-color:#000;stop-opacity:1" offset="0" id="stop3961"/><stop style="stop-color:#000;stop-opacity:.648855" offset="1" id="stop3963"/></linearGradient><linearGradient id="linearGradient3784-4"><stop style="stop-color:#fff;stop-opacity:.435115" offset="0" id="stop3786-8"/><stop style="stop-color:#000;stop-opacity:0" offset="1" id="stop3788-6"/></linearGradient><linearGradient id="linearGradient3784-4-5"><stop style="stop-color:#fff;stop-opacity:.48855" offset="0" id="stop3786-8-0"/><stop style="stop-color:#000;stop-opacity:0" offset="1" id="stop3788-6-3"/></linearGradient><linearGradient id="linearGradient3784-4-1"><stop style="stop-color:#fff;stop-opacity:.236641" offset="0" id="stop3786-8-03"/><stop style="stop-color:#000;stop-opacity:0" offset="1" id="stop3788-6-6"/></linearGradient><linearGradient id="linearGradient3768"><stop style="stop-color:#df0000;stop-opacity:1" offset="0" id="stop3770"/><stop style="stop-color:#df0000;stop-opacity:.671756" offset="1" id="stop3772"/></linearGradient><linearGradient id="linearGradient3784-4-6"><stop style="stop-color:#fff;stop-opacity:.312977" offset="0" id="stop3786-8-8"/><stop style="stop-color:#000;stop-opacity:0" offset="1" id="stop3788-6-8"/></linearGradient><linearGradient id="linearGradient3784-4-2"><stop style="stop-color:#fff;stop-opacity:.290076" offset="0" id="stop3786-8-1"/><stop style="stop-color:#000;stop-opacity:0" offset="1" id="stop3788-6-5"/></linearGradient><linearGradient id="linearGradient2984"><stop style="stop-color:#df0000;stop-opacity:1" offset="0" id="stop2986"/><stop style="stop-color:#df0000;stop-opacity:.641221" offset="1" id="stop2988"/></linearGradient><linearGradient id="linearGradient3784-4-4"><stop style="stop-color:#fff;stop-opacity:.435115" offset="0" id="stop3786-8-8-2"/><stop style="stop-color:#000;stop-opacity:0" offset="1" id="stop3788-6-1"/></linearGradient><radialGradient xlink:href="#linearGradient3773" id="radialGradient3781" cx="-.158" cy="-8.835" fx="-.158" fy="-8.835" r="8" gradientTransform="matrix(-1.58427 -.0235 .03072 -2.47757 -.249 -26.714)" gradientUnits="userSpaceOnUse"/><radialGradient xlink:href="#linearGradient3773" id="radialGradient3957" cx="-.158" cy="-8.835" fx="-.158" fy="-8.835" r="8" gradientTransform="matrix(-1.58427 -.0235 .03072 -2.47757 -.249 -26.714)" gradientUnits="userSpaceOnUse"/><radialGradient r="81.903" fy="509.476" fx="168.025" cy="509.476" cx="168.025" gradientTransform="matrix(1.25656 -.7774 .33664 .53613 -221.202 359.243)" gradientUnits="userSpaceOnUse" id="radialGradient3975" xlink:href="#linearGradient3784-4"/><radialGradient xlink:href="#linearGradient3784-4-5" id="radialGradient3929" gradientUnits="userSpaceOnUse" gradientTransform="matrix(1.25656 -.7774 .33664 .53613 -221.202 359.243)" cx="168.025" cy="509.476" fx="168.025" fy="509.476" r="81.903"/><radialGradient xlink:href="#linearGradient3784-4-1" id="radialGradient3927" gradientUnits="userSpaceOnUse" gradientTransform="matrix(1.25656 -.7774 .33664 .53613 -221.202 359.243)" cx="168.025" cy="509.476" fx="168.025" fy="509.476" r="81.903"/><radialGradient r="81.903" fy="492.632" fx="159.354" cy="492.632" cx="159.354" gradientTransform="matrix(1.08948 -.71514 .44645 .65627 -244.933 290.918)" gradientUnits="userSpaceOnUse" id="radialGradient4013-8" xlink:href="#linearGradient3784-4-2"/><radialGradient r="81.903" fy="511.223" fx="171.487" cy="511.223" cx="171.487" gradientTransform="matrix(1.15299 -.67392 .39482 .67549 -233.633 270.4)" gradientUnits="userSpaceOnUse" id="radialGradient3100" xlink:href="#linearGradient3784-4-4"/><radialGradient xlink:href="#linearGradient2984" id="radialGradient3137" gradientUnits="userSpaceOnUse" gradientTransform="matrix(-1.12242 .00551 -.00909 -1.85031 -.03 -10.228)" cx="0" cy="-3.234" fx="0" fy="-3.234" r="8"/></defs><g id="Layer_x0020_1" style="fill-rule:nonzero;clip-rule:nonzero;stroke:#000;stroke-miterlimit:4"><path style="fill:#fff;stroke-width:.5px" d="M166.837 235.548c0 3.777-3.087 6.869-6.871 6.869H7.11c-3.775 0-6.861-3.092-6.861-6.87V7.12C.25 3.343 3.336.25 7.11.25h152.856c3.784 0 6.87 3.093 6.87 6.87v228.428z" id="path5"/></g><text xml:space="preserve" style="letter-spacing:0;word-spacing:0;fill:#df0000;fill-opacity:1;stroke:none;font-family:Bitstream Vera Sans;font-size:32px;font-style:normal;font-weight:400;line-height:125%" x="7.846" y="26.413" id="text3788"><tspan id="tspan3790" x="7.846" y="26.413" style="font-variant:normal;fill:#df0000;fill-opacity:1;-inkscape-font-specification:Arial;font-family:Arial;font-style:normal;font-weight:400;font-stretch:100%">6</tspan></text><text xml:space="preserve" style="letter-spacing:0;word-spacing:0;fill:#df0000;fill-opacity:1;stroke:none;font-family:Bitstream Vera Sans;font-size:32px;font-style:normal;font-weight:400;line-height:125%" x="-159.488" y="-216.715" id="text3788-4" transform="scale(-1)"><tspan id="tspan3790-3" x="-159.488" y="-216.715" style="font-variant:normal;fill:#df0000;fill-opacity:1;-inkscape-font-specification:Arial;font-family:Arial;font-style:normal;font-weight:400;font-stretch:100%">6</tspan></text><g transform="matrix(1.4769 0 0 1.4769 16.968 44.236)" id="layer1-2-6"><path style="fill:#df0000" id="dl-6" d="M3.243-4.725C1.126-7.59 0-10.5 0-10.5s-1.126 2.91-3.243 5.775C-5.361-1.862-8 0-8 0s2.639 1.861 4.757 4.726C-1.126 7.59 0 10.5 0 10.5s1.126-2.91 3.243-5.774C5.361 1.861 8 0 8 0S5.361-1.862 3.243-4.725z"/></g><g transform="matrix(1.4769 0 0 1.4769 150.62 198.503)" id="layer1-2-6-4"><path style="fill:#df0000" id="dl-6-9" d="M3.243-4.725C1.126-7.59 0-10.5 0-10.5s-1.126 2.91-3.243 5.775C-5.361-1.862-8 0-8 0s2.639 1.861 4.757 4.726C-1.126 7.59 0 10.5 0 10.5s1.126-2.91 3.243-5.774C5.361 1.861 8 0 8 0S5.361-1.862 3.243-4.725z"/></g><g transform="translate(110.129 192.022) scale(2.58829)" id="layer1-2-6-8"><path style="fill:#df0000" id="dl-6-8" d="M3.243-4.725C1.126-7.59 0-10.5 0-10.5s-1.126 2.91-3.243 5.775C-5.361-1.862-8 0-8 0s2.639 1.861 4.757 4.726C-1.126 7.59 0 10.5 0 10.5s1.126-2.91 3.243-5.774C5.361 1.861 8 0 8 0S5.361-1.862 3.243-4.725z"/></g><g transform="translate(110.129 50.82) scale(2.58829)" id="layer1-2-6-8-2"><path style="fill:#df0000" id="dl-6-8-6" d="M3.243-4.725C1.126-7.59 0-10.5 0-10.5s-1.126 2.91-3.243 5.775C-5.361-1.862-8 0-8 0s2.639 1.861 4.757 4.726C-1.126 7.59 0 10.5 0 10.5s1.126-2.91 3.243-5.774C5.361 1.861 8 0 8 0S5.361-1.862 3.243-4.725z"/></g><g transform="translate(110.129 120.52) scale(2.58829)" id="layer1-2-6-8-2-8"><path style="fill:#df0000" id="dl-6-8-6-8" d="M3.243-4.725C1.126-7.59 0-10.5 0-10.5s-1.126 2.91-3.243 5.775C-5.361-1.862-8 0-8 0s2.639 1.861 4.757 4.726C-1.126 7.59 0 10.5 0 10.5s1.126-2.91 3.243-5.774C5.361 1.861 8 0 8 0S5.361-1.862 3.243-4.725z"/></g><g transform="translate(56.013 192.14) scale(2.58829)" id="layer1-2-6-8-8"><path style="fill:#df0000" id="dl-6-8-8" d="M3.243-4.725C1.126-7.59 0-10.5 0-10.5s-1.126 2.91-3.243 5.775C-5.361-1.862-8 0-8 0s2.639 1.861 4.757 4.726C-1.126 7.59 0 10.5 0 10.5s1.126-2.91 3.243-5.774C5.361 1.861 8 0 8 0S5.361-1.862 3.243-4.725z"/></g><g transform="translate(56.013 50.938) scale(2.58829)" id="layer1-2-6-8-2-4"><path style="fill:#df0000" id="dl-6-8-6-3" d="M3.243-4.725C1.126-7.59 0-10.5 0-10.5s-1.126 2.91-3.243 5.775C-5.361-1.862-8 0-8 0s2.639 1.861 4.757 4.726C-1.126 7.59 0 10.5 0 10.5s1.126-2.91 3.243-5.774C5.361 1.861 8 0 8 0S5.361-1.862 3.243-4.725z"/></g><g transform="translate(56.013 120.638) scale(2.58829)" id="layer1-2-6-8-2-8-1"><path style="fill:#df0000" id="dl-6-8-6-8-4" d="M3.243-4.725C1.126-7.59 0-10.5 0-10.5s-1.126 2.91-3.243 5.775C-5.361-1.862-8 0-8 0s2.639 1.861 4.757 4.726C-1.126 7.59 0 10.5 0 10.5s1.126-2.91 3.243-5.774C5.361 1.861 8 0 8 0S5.361-1.862 3.243-4.725z"/></g></svg>