<svg xmlns="http://www.w3.org/2000/svg" xmlns:xlink="http://www.w3.org/1999/xlink" width="222.783" height="323.556" viewBox="0 0 167.087 242.667" xml:space="preserve" id="svg2" version="1.1"><defs id="defs41"><radialGradient xlink:href="#linearGradient3773" id="radialGradient3781" cx="-.158" cy="-8.835" fx="-.158" fy="-8.835" r="8" gradientTransform="matrix(-1.58427 -.0235 .03072 -2.47757 -.249 -26.714)" gradientUnits="userSpaceOnUse"/><radialGradient xlink:href="#linearGradient3773" id="radialGradient3957" cx="-.158" cy="-8.835" fx="-.158" fy="-8.835" r="8" gradientTransform="matrix(-1.58427 -.0235 .03072 -2.47757 -.249 -26.714)" gradientUnits="userSpaceOnUse"/><radialGradient r="81.903" fy="509.476" fx="168.025" cy="509.476" cx="168.025" gradientTransform="matrix(1.25656 -.7774 .33664 .53613 -221.202 359.243)" gradientUnits="userSpaceOnUse" id="radialGradient3975" xlink:href="#linearGradient3784-4"/><radialGradient xlink:href="#linearGradient3784-4-5" id="radialGradient3929" gradientUnits="userSpaceOnUse" gradientTransform="matrix(1.25656 -.7774 .33664 .53613 -221.202 359.243)" cx="168.025" cy="509.476" fx="168.025" fy="509.476" r="81.903"/><radialGradient xlink:href="#linearGradient3784-4-1" id="radialGradient3927" gradientUnits="userSpaceOnUse" gradientTransform="matrix(1.25656 -.7774 .33664 .53613 -221.202 359.243)" cx="168.025" cy="509.476" fx="168.025" fy="509.476" r="81.903"/><radialGradient xlink:href="#linearGradient3768" id="radialGradient3776" cx="-.206" cy="-4.579" fx="-.206" fy="-4.579" r="8" gradientTransform="matrix(-1 0 0 -1.72018 -.412 -13.027)" gradientUnits="userSpaceOnUse"/><radialGradient r="81.903" fy="511.223" fx="171.487" cy="511.223" cx="171.487" gradientTransform="matrix(1.15299 -.67392 .39482 .67549 -233.633 270.4)" gradientUnits="userSpaceOnUse" id="radialGradient4013" xlink:href="#linearGradient3784-4-6"/><radialGradient r="81.903" fy="492.632" fx="159.354" cy="492.632" cx="159.354" gradientTransform="matrix(1.08948 -.71514 .44645 .65627 -244.933 290.918)" gradientUnits="userSpaceOnUse" id="radialGradient4013-8" xlink:href="#linearGradient3784-4-2"/><radialGradient r="81.903" fy="492.632" fx="159.354" cy="492.632" cx="159.354" gradientTransform="matrix(1.08948 -.71514 .44645 .65627 -244.933 290.918)" gradientUnits="userSpaceOnUse" id="radialGradient3073" xlink:href="#linearGradient3784-4-2"/><linearGradient id="linearGradient3773"><stop style="stop-color:#000;stop-opacity:1" offset="0" id="stop3775"/><stop style="stop-color:#000;stop-opacity:.648855" offset="1" id="stop3777"/></linearGradient><linearGradient id="linearGradient3959"><stop style="stop-color:#000;stop-opacity:1" offset="0" id="stop3961"/><stop style="stop-color:#000;stop-opacity:.648855" offset="1" id="stop3963"/></linearGradient><linearGradient id="linearGradient3784-4"><stop style="stop-color:#fff;stop-opacity:.435115" offset="0" id="stop3786-8"/><stop style="stop-color:#000;stop-opacity:0" offset="1" id="stop3788-6"/></linearGradient><linearGradient id="linearGradient3784-4-5"><stop style="stop-color:#fff;stop-opacity:.48855" offset="0" id="stop3786-8-0"/><stop style="stop-color:#000;stop-opacity:0" offset="1" id="stop3788-6-3"/></linearGradient><linearGradient id="linearGradient3784-4-1"><stop style="stop-color:#fff;stop-opacity:.236641" offset="0" id="stop3786-8-03"/><stop style="stop-color:#000;stop-opacity:0" offset="1" id="stop3788-6-6"/></linearGradient><linearGradient id="linearGradient3768"><stop style="stop-color:#df0000;stop-opacity:1" offset="0" id="stop3770"/><stop style="stop-color:#df0000;stop-opacity:.671756" offset="1" id="stop3772"/></linearGradient><linearGradient id="linearGradient3784-4-6"><stop style="stop-color:#fff;stop-opacity:.312977" offset="0" id="stop3786-8-8"/><stop style="stop-color:#000;stop-opacity:0" offset="1" id="stop3788-6-8"/></linearGradient><linearGradient id="linearGradient3784-4-2"><stop style="stop-color:#fff;stop-opacity:.290076" offset="0" id="stop3786-8-1"/><stop style="stop-color:#000;stop-opacity:0" offset="1" id="stop3788-6-5"/></linearGradient></defs><g id="Layer_x0020_1" style="fill-rule:nonzero;clip-rule:nonzero;stroke:#000;stroke-miterlimit:4"><path style="fill:#fff;stroke-width:.5px" d="M166.837 235.548c0 3.777-3.087 6.869-6.871 6.869H7.11c-3.775 0-6.861-3.092-6.861-6.87V7.12C.25 3.343 3.336.25 7.11.25h152.856c3.784 0 6.87 3.093 6.87 6.87v228.428z" id="path5"/></g><g transform="matrix(1.6743 0 0 1.567 17.178 46.385)" id="layer1-9-6" style="fill:#df0000;fill-opacity:1"><path style="fill:#df0000;fill-opacity:1" id="hl-8" d="M3.676-9C.433-9 0-5.523 0-5.523S-.433-9-3.676-9C-5.946-9-8-7.441-8-4.5-8-.614-1.42 3.294 0 9 1.352 3.299 8-.614 8-4.5 8-7.441 5.946-9 3.676-9z"/></g><g transform="matrix(-1.6743 0 0 -1.567 150.156 195.143)" id="layer1-9-6-5" style="fill:#df0000;fill-opacity:1"><path style="fill:#df0000;fill-opacity:1" id="hl-8-1" d="M3.676-9C.433-9 0-5.523 0-5.523S-.433-9-3.676-9C-5.946-9-8-7.441-8-4.5-8-.614-1.42 3.294 0 9 1.352 3.299 8-.614 8-4.5 8-7.441 5.946-9 3.676-9z"/></g><g transform="matrix(2.779 0 0 2.60089 54.512 30.004)" id="layer1-9-6-8" style="fill:#df0000;fill-opacity:1"><path style="fill:#df0000;fill-opacity:1" id="hl-8-8" d="M3.676-9C.433-9 0-5.523 0-5.523S-.433-9-3.676-9C-5.946-9-8-7.441-8-4.5-8-.614-1.42 3.294 0 9 1.352 3.299 8-.614 8-4.5 8-7.441 5.946-9 3.676-9z"/></g><g transform="matrix(-2.779 0 0 -2.60089 54.512 212.806)" id="layer1-9-6-8-9" style="fill:#df0000;fill-opacity:1"><path style="fill:#df0000;fill-opacity:1" id="hl-8-8-5" d="M3.676-9C.433-9 0-5.523 0-5.523S-.433-9-3.676-9C-5.946-9-8-7.441-8-4.5-8-.614-1.42 3.294 0 9 1.352 3.299 8-.614 8-4.5 8-7.441 5.946-9 3.676-9z"/></g><g transform="matrix(2.779 0 0 2.60089 54.512 95.239)" id="layer1-9-6-8-8" style="fill:#df0000;fill-opacity:1"><path style="fill:#df0000;fill-opacity:1" id="hl-8-8-8" d="M3.676-9C.433-9 0-5.523 0-5.523S-.433-9-3.676-9C-5.946-9-8-7.441-8-4.5-8-.614-1.42 3.294 0 9 1.352 3.299 8-.614 8-4.5 8-7.441 5.946-9 3.676-9z"/></g><g transform="matrix(-2.779 0 0 -2.60089 54.512 145.356)" id="layer1-9-6-8-884-8" style="fill:#df0000;fill-opacity:1"><path style="fill:#df0000;fill-opacity:1" id="hl-8-8-3-8" d="M3.676-9C.433-9 0-5.523 0-5.523S-.433-9-3.676-9C-5.946-9-8-7.441-8-4.5-8-.614-1.42 3.294 0 9 1.352 3.299 8-.614 8-4.5 8-7.441 5.946-9 3.676-9z"/></g><g transform="matrix(2.779 0 0 2.60089 111.99 30.603)" id="layer1-9-6-8-7" style="fill:#df0000;fill-opacity:1"><path style="fill:#df0000;fill-opacity:1" id="hl-8-8-1" d="M3.676-9C.433-9 0-5.523 0-5.523S-.433-9-3.676-9C-5.946-9-8-7.441-8-4.5-8-.614-1.42 3.294 0 9 1.352 3.299 8-.614 8-4.5 8-7.441 5.946-9 3.676-9z"/></g><g transform="matrix(-2.779 0 0 -2.60089 111.99 213.405)" id="layer1-9-6-8-9-7" style="fill:#df0000;fill-opacity:1"><path style="fill:#df0000;fill-opacity:1" id="hl-8-8-5-2" d="M3.676-9C.433-9 0-5.523 0-5.523S-.433-9-3.676-9C-5.946-9-8-7.441-8-4.5-8-.614-1.42 3.294 0 9 1.352 3.299 8-.614 8-4.5 8-7.441 5.946-9 3.676-9z"/></g><g transform="matrix(2.779 0 0 2.60089 111.99 95.837)" id="layer1-9-6-8-8-7" style="fill:#df0000;fill-opacity:1"><path style="fill:#df0000;fill-opacity:1" id="hl-8-8-8-2" d="M3.676-9C.433-9 0-5.523 0-5.523S-.433-9-3.676-9C-5.946-9-8-7.441-8-4.5-8-.614-1.42 3.294 0 9 1.352 3.299 8-.614 8-4.5 8-7.441 5.946-9 3.676-9z"/></g><g transform="matrix(-2.779 0 0 -2.60089 111.99 145.955)" id="layer1-9-6-8-884-8-2" style="fill:#df0000;fill-opacity:1"><path style="fill:#df0000;fill-opacity:1" id="hl-8-8-3-8-6" d="M3.676-9C.433-9 0-5.523 0-5.523S-.433-9-3.676-9C-5.946-9-8-7.441-8-4.5-8-.614-1.42 3.294 0 9 1.352 3.299 8-.614 8-4.5 8-7.441 5.946-9 3.676-9z"/></g><g transform="matrix(2.779 0 0 2.60089 83.213 62.705)" id="layer1-9-6-8-91" style="fill:#df0000;fill-opacity:1"><path style="fill:#df0000;fill-opacity:1" id="hl-8-8-7" d="M3.676-9C.433-9 0-5.523 0-5.523S-.433-9-3.676-9C-5.946-9-8-7.441-8-4.5-8-.614-1.42 3.294 0 9 1.352 3.299 8-.614 8-4.5 8-7.441 5.946-9 3.676-9z"/></g><text xml:space="preserve" style="letter-spacing:0;word-spacing:0;fill:#df0000;fill-opacity:1;stroke:none;font-family:Bitstream Vera Sans;font-size:32px;font-style:normal;font-weight:400;line-height:125%" x="8.744" y="28.013" id="text3788-43"><tspan id="tspan3790-1" x="8.744" y="28.013" style="font-variant:normal;fill:#df0000;fill-opacity:1;-inkscape-font-specification:Arial;font-family:Arial;font-style:normal;font-weight:400;font-stretch:100%">9</tspan></text><text xml:space="preserve" style="letter-spacing:0;word-spacing:0;fill:#df0000;fill-opacity:1;stroke:none;font-family:Bitstream Vera Sans;font-size:32px;font-style:normal;font-weight:400;line-height:125%" x="-158.818" y="-213.515" id="text3788-43-3" transform="scale(-1)"><tspan id="tspan3790-1-1" x="-158.818" y="-213.515" style="font-variant:normal;fill:#df0000;fill-opacity:1;-inkscape-font-specification:Arial;font-family:Arial;font-style:normal;font-weight:400;font-stretch:100%">9</tspan></text></svg>