<svg xmlns="http://www.w3.org/2000/svg" width="208" height="303" viewBox="0 0 167.08 242.665" xml:space="preserve" id="svg2" version="1.0"><g id="Layer_x0020_1" style="fill:#fb0f0c;fill-rule:nonzero;stroke:#000;stroke-width:.998507px;stroke-miterlimit:4" transform="matrix(1 0 0 1.003 0 -.363)"><path style="fill:#fff;stroke-width:.499253px" d="M166.83 235.546c0 3.774-3.086 6.869-6.87 6.869H7.11c-3.774 0-6.86-3.095-6.86-6.87V7.12C.25 3.34 3.336.25 7.11.25h152.85c3.784 0 6.87 3.09 6.87 6.87v228.426z" id="path5"/><path style="fill-rule:evenodd;stroke:#fb0f0c;stroke-width:.0268263px;stroke-miterlimit:10" d="M27.635 32.612H131.08c.812 0 8.627-.372 8.627.294V207.77c0 .255.174 1.423-.142 1.423H28.314c-1.461 0-.68-4.062-.68-5.224V32.612" id="path7"/><path style="fill:#fff;fill-rule:evenodd;stroke:#fff;stroke-width:.0268263px;stroke-miterlimit:10" d="M61.657 96.089c4.47 0 44.028-.315 44.028.31v50.272c0 .504-44.028.06-44.028.187V96.09" id="path9"/><path style="fill:#fff;fill-rule:evenodd;stroke:#fff;stroke-width:.0268263px;stroke-miterlimit:10" d="m83.671 91.472-13.008 15.004-8.772 10.117c-.68.783-4.237 3.8-4.237 4.886 0 1 3.273 3.776 3.896 4.495l9.113 10.51 13.008 15.003c4.336-5.002 8.672-10.003 13.01-15.004l8.77-10.117c.68-.783 4.238-3.799 4.238-4.887 0-1-3.273-3.774-3.897-4.493l-9.112-10.51-13.009-15.004" id="path11"/><path style="fill-rule:evenodd;stroke:#fb0f0c;stroke-width:.0268263px;stroke-miterlimit:10" d="M63.658 98.397h38.229c2.306 0 1.797.196 1.797 2.509v42.338c0 2.099-1.218 1.319-3.227 1.319H64.633c-1.577 0-.975-1.021-.975-2.51V98.398" id="path13"/><path style="fill-rule:evenodd;stroke:#fb0f0c;stroke-width:.0268263px;stroke-miterlimit:10" d="M83.671 93.78c-3.926 4.53-7.853 9.058-11.78 13.587l-8.397 9.686c-.615.709-3.839 3.442-3.839 4.426 0 .899 2.94 3.391 3.5 4.037l8.28 9.55 12.236 14.113 11.78-13.586c2.8-3.229 5.6-6.457 8.398-9.686.614-.709 3.838-3.442 3.838-4.428 0-.897-2.94-3.39-3.499-4.035l-8.28-9.55L83.67 93.78" id="path15"/><path style="fill:#fff;fill-rule:evenodd;stroke:#fff;stroke-width:.0268263px;stroke-miterlimit:10" d="M67.66 103.014h26.075c1.085 0 5.946-.733 5.946.591v11.748c0 1.722.022 24.593-.02 24.593h-26.6c-1.059 0-5.4.723-5.4-.592V103.014" id="path17"/><path style="fill:#fff;fill-rule:evenodd;stroke:#fff;stroke-width:.0268263px;stroke-miterlimit:10" d="m83.671 98.397-10.006 11.541-6.707 7.736c-.529.61-3.3 2.959-3.3 3.805 0 .76 2.486 2.868 2.958 3.413l7.049 8.129 10.006 11.542 10.006-11.542c2.237-2.579 4.473-5.157 6.707-7.736.53-.61 3.3-2.959 3.3-3.806 0-.758-2.485-2.866-2.958-3.411l-7.049-8.13-10.006-11.541" id="path19"/><path style="fill-rule:evenodd;stroke:#fb0f0c;stroke-width:.0268263px;stroke-miterlimit:10" d="M69.662 105.322h25.613c3.083 0 2.405.273 2.405 3.36v28.284c0 1.492-5.24.672-6.462.672h-16.24c-1.89 0-5.316 1.102-5.316-1.17v-31.146" id="path21"/><path style="fill-rule:evenodd;stroke:#fb0f0c;stroke-width:.0268263px;stroke-miterlimit:10" d="m83.671 100.705-8.776 10.124-6.335 7.305c-.464.535-2.9 2.601-2.9 3.345 0 .658 2.152 2.483 2.56 2.955l6.217 7.169 9.234 10.65 8.778-10.122 6.334-7.306c.464-.535 2.9-2.601 2.9-3.346 0-.656-2.152-2.482-2.56-2.953l-6.217-7.17-9.235-10.65" id="path23"/><path style="fill:#fff;fill-rule:evenodd;stroke:#fff;stroke-width:.0268263px;stroke-miterlimit:10" d="m83.671 103.014-7.778 8.971-5.471 6.31c-.442.51-2.761 2.476-2.761 3.184 0 .62 2.03 2.343 2.417 2.789l5.361 6.184c2.745 3.164 5.489 6.33 8.232 9.494l7.78-8.972c1.822-2.103 3.646-4.206 5.47-6.309.442-.51 2.76-2.477 2.76-3.186 0-.619-2.031-2.342-2.416-2.787l-5.362-6.184c-2.743-3.165-5.487-6.33-8.232-9.494" id="path25"/><path style="fill:#fff;fill-rule:evenodd;stroke:#fff;stroke-width:.0268263px;stroke-miterlimit:10" d="M71.663 107.63h23.913c.209 0 .103 22.657.103 24.818 0 .438.313 2.54 0 2.881-.35.382-3.26 0-3.752 0H71.768c-.235 0-.105-2.195-.105-2.451V107.63" id="path27"/><path style="fill-rule:evenodd;stroke:none" d="m83.671 107.63-6.004 6.925-4.127 4.76c-.299.345-1.877 1.685-1.877 2.164 0 .481 1.578 1.82 1.877 2.165l4.127 4.76 6.004 6.925 6.004-6.925 4.127-4.76c.3-.344 1.877-1.684 1.877-2.165 0-.479-1.578-1.819-1.877-2.163-1.375-1.587-2.75-3.174-4.127-4.761l-6.004-6.925" id="path29"/><path style="fill:#fff;fill-rule:evenodd;stroke:#fff;stroke-width:.0268263px;stroke-miterlimit:10" d="M113.69 93.78h-4.001l4.002 4.617v-4.616" id="path31"/><path style="fill:#fff;fill-rule:evenodd;stroke:#fff;stroke-width:.0268263px;stroke-miterlimit:10" d="m113.69 100.705-4.001-4.616v4.487c0 .271 3.486.13 4.002.13" id="path33"/><path style="fill:#fff;fill-rule:evenodd;stroke:#fff;stroke-width:.0268263px;stroke-miterlimit:10" d="M53.652 93.78h4.002l-4.002 4.617v-4.616" id="path35"/><path style="fill:#fff;fill-rule:evenodd;stroke:#fff;stroke-width:.0268263px;stroke-miterlimit:10" d="m53.652 100.705 4.002-4.616v4.487c0 .271-3.486.13-4.002.13" id="path37"/><path style="fill:#fff;fill-rule:evenodd;stroke:#fff;stroke-width:.0268263px;stroke-miterlimit:10" d="M57.654 142.254h-4.002l4.002 4.616v-4.616" id="path39"/><path style="fill:#fff;fill-rule:evenodd;stroke:#fff;stroke-width:.0268263px;stroke-miterlimit:10" d="m57.654 149.179-4.002-4.617v4.488c0 .271 3.486.129 4.002.129" id="path41"/><path style="fill:#fff;fill-rule:evenodd;stroke:#fff;stroke-width:.0268263px;stroke-miterlimit:10" d="M109.689 142.254h4.002l-4.002 4.616v-4.616" id="path43"/><path style="fill:#fff;fill-rule:evenodd;stroke:#fff;stroke-width:.0268263px;stroke-miterlimit:10" d="m109.689 149.179 4.002-4.617v4.488c0 .271-3.486.129-4.002.129" id="path45"/><path style="fill:#fff;fill-rule:evenodd;stroke:#fff;stroke-width:.0268263px;stroke-miterlimit:10" d="M57.654 126.097h-4.002l4.002 4.616v-4.616" id="path47"/><path style="fill:#fff;fill-rule:evenodd;stroke:#fff;stroke-width:.0268263px;stroke-miterlimit:10" d="m57.654 133.02-4.002-4.616v4.488c0 .271 3.486.129 4.002.129" id="path49"/><path style="fill:#fff;fill-rule:evenodd;stroke:#fff;stroke-width:.0268263px;stroke-miterlimit:10" d="M53.652 109.938h4.002l-4.002 4.617v-4.617" id="path51"/><path style="fill:#fff;fill-rule:evenodd;stroke:#fff;stroke-width:.0268263px;stroke-miterlimit:10" d="m53.652 116.863 4.002-4.616v4.487c0 .27-3.486.13-4.002.13" id="path53"/><path style="fill:#fff;fill-rule:evenodd;stroke:#fff;stroke-width:.0268263px;stroke-miterlimit:10" d="M113.69 109.938h-4.001l4.002 4.617v-4.617" id="path55"/><path style="fill:#fff;fill-rule:evenodd;stroke:#fff;stroke-width:.0268263px;stroke-miterlimit:10" d="m113.69 116.863-4.001-4.616v4.487c0 .27 3.486.13 4.002.13" id="path57"/><path style="fill:#fff;fill-rule:evenodd;stroke:#fff;stroke-width:.0268263px;stroke-miterlimit:10" d="M109.689 126.097h4.002l-4.002 4.616v-4.616" id="path59"/><path style="fill:#fff;fill-rule:evenodd;stroke:#fff;stroke-width:.0268263px;stroke-miterlimit:10" d="m109.689 133.02 4.002-4.616v4.488c0 .271-3.486.129-4.002.129" id="path61"/><path style="fill-rule:evenodd;stroke:none" d="M69.712 24.821c-.818-2.024-1.683-4.086-2.244-6.201-.506-1.907-.909-6.56 1.627-7.475 2.433-.877 3.318 3.33 3.286 4.982-.048 2.483-1.228 5.02-2.117 7.302-.18.465-.365.93-.552 1.392" id="path63"/><path style="fill-rule:evenodd;stroke:none" d="M69.7 24.867c-2.012-.846-4.251-1.676-6.032-2.962-1.58-1.141-4.096-4.525-2.628-6.594 1.482-2.089 4.574.305 5.573 1.716 1.433 2.023 2.107 4.79 2.86 7.125l.226.715" id="path65"/><path style="fill-rule:evenodd;stroke:none" d="M69.706 24.867c2.01-.847 4.25-1.676 6.03-2.962 1.58-1.14 4.097-4.525 2.629-6.594-1.482-2.09-4.575.305-5.574 1.716-1.46 2.063-2.145 4.9-2.91 7.283l-.175.557" id="path67"/><path style="fill-rule:evenodd;stroke:none" d="M64.552 25.145c-1.627-.483-3.643-.324-4.683 1.184-.554.804-.68 3.918 1.084 3.313.308-.106.56-1.471.934-1.786.715-.6 2.054-.58 2.922-.65 1.168-.092 2.38.032 3.529-.126a.072.072 0 0 1 .007-.02c-1.088-.843-2.475-1.508-3.793-1.915" id="path69"/><path style="fill-rule:evenodd;stroke:none" d="M74.772 25.145c1.628-.484 3.644-.324 4.683 1.184.554.804.68 3.919-1.084 3.313-.308-.106-.558-1.47-.933-1.786-.715-.6-2.054-.58-2.922-.65-1.169-.092-2.381.032-3.53-.126a.072.072 0 0 0-.007-.02c1.089-.843 2.475-1.508 3.793-1.915" id="path71"/><path style="fill-rule:evenodd;stroke:none" d="M68.328 29.63c.238 2.034 3.764 1.045 2.078-1.754-1.185-1.967-1.864-.126-2.078 1.754" id="path73"/><path style="fill-rule:evenodd;stroke:none" d="M97.73 24.821c-.818-2.024-1.684-4.087-2.244-6.201-.506-1.907-.908-6.56 1.627-7.475 2.433-.878 3.318 3.33 3.286 4.982-.048 2.483-1.228 5.02-2.116 7.302-.182.465-.366.93-.553 1.392" id="path75"/><path style="fill-rule:evenodd;stroke:none" d="M97.717 24.867c-2.01-.846-4.25-1.676-6.03-2.962-1.58-1.141-4.097-4.525-2.629-6.594 1.483-2.088 4.574.305 5.574 1.716 1.433 2.023 2.106 4.79 2.858 7.125.077.238.152.478.227.715" id="path77"/><path style="fill-rule:evenodd;stroke:none" d="M97.724 24.867c2.01-.847 4.25-1.676 6.03-2.962 1.581-1.141 4.097-4.525 2.628-6.594-1.481-2.089-4.574.305-5.573 1.716-1.462 2.063-2.143 4.9-2.908 7.283-.06.185-.118.373-.177.557" id="path79"/><path style="fill-rule:evenodd;stroke:none" d="M92.57 25.145c-1.627-.484-3.643-.323-4.682 1.184-.555.804-.681 3.919 1.084 3.313.307-.106.559-1.471.934-1.786.714-.6 2.053-.58 2.922-.65 1.168-.092 2.38.032 3.528-.126a.072.072 0 0 1 .007-.02c-1.09-.843-2.474-1.508-3.793-1.915" id="path81"/><path style="fill-rule:evenodd;stroke:none" d="M102.79 25.145c1.627-.484 3.644-.323 4.684 1.184.554.804.68 3.918-1.084 3.313-.308-.106-.56-1.471-.934-1.786-.714-.6-2.054-.58-2.922-.65-1.168-.093-2.381.032-3.53-.126a.05.05 0 0 0-.006-.02c1.088-.842 2.474-1.508 3.793-1.915" id="path83"/><path style="fill-rule:evenodd;stroke:none" d="M96.346 29.63c.238 2.034 3.765 1.045 2.078-1.754-1.184-1.967-1.864-.126-2.078 1.754" id="path85"/><path style="fill-rule:evenodd;stroke:none" d="M125.749 24.821c-.818-2.025-1.684-4.086-2.246-6.201-.504-1.907-.908-6.56 1.63-7.475 2.432-.878 3.316 3.33 3.284 4.982-.048 2.483-1.228 5.019-2.117 7.302-.18.465-.365.93-.551 1.392" id="path87"/><path style="fill-rule:evenodd;stroke:none" d="M125.736 24.867c-2.012-.847-4.25-1.676-6.031-2.962-1.58-1.141-4.096-4.525-2.628-6.594 1.481-2.089 4.574.305 5.573 1.716 1.46 2.063 2.144 4.9 2.908 7.283l.178.557" id="path89"/><path style="fill-rule:evenodd;stroke:none" d="M125.742 24.867c2.011-.846 4.25-1.676 6.031-2.962 1.58-1.141 4.096-4.525 2.629-6.594-1.483-2.089-4.575.305-5.574 1.716-1.461 2.063-2.145 4.9-2.909 7.283-.06.185-.119.373-.177.557" id="path91"/><path style="fill-rule:evenodd;stroke:none" d="M120.59 25.145c-1.629-.484-3.644-.323-4.684 1.184-.555.804-.68 3.918 1.084 3.313.307-.106.558-1.471.933-1.786.715-.6 2.055-.58 2.922-.65 1.17-.092 2.381.032 3.53-.126a.132.132 0 0 1 .006-.02c-1.089-.843-2.473-1.508-3.792-1.915" id="path93"/><path style="fill-rule:evenodd;stroke:none" d="M130.808 25.145c1.629-.483 3.645-.324 4.684 1.184.554.804.681 3.918-1.084 3.313-.307-.106-.559-1.47-.934-1.786-.715-.6-2.054-.58-2.922-.65-1.168-.092-2.38.032-3.529-.126l-.006-.02c1.088-.843 2.474-1.508 3.791-1.915" id="path95"/><path style="fill-rule:evenodd;stroke:none" d="M124.365 29.63c.238 2.035 3.763 1.044 2.078-1.754-1.186-1.967-1.863-.126-2.078 1.754" id="path97"/><path style="fill-rule:evenodd;stroke:none" d="M41.694 24.821c-.819-2.024-1.684-4.087-2.245-6.201-.506-1.907-.908-6.56 1.628-7.475 2.433-.878 3.317 3.33 3.285 4.982-.048 2.483-1.228 5.019-2.116 7.302-.181.465-.366.93-.552 1.392" id="path99"/><path style="fill-rule:evenodd;stroke:none" d="M41.68 24.867c-2.011-.847-4.25-1.676-6.03-2.962-1.58-1.141-4.096-4.525-2.629-6.594 1.482-2.089 4.575.305 5.574 1.716 1.433 2.023 2.107 4.79 2.859 7.125l.227.715" id="path101"/><path style="fill-rule:evenodd;stroke:none" d="M41.687 24.867c2.011-.846 4.25-1.676 6.03-2.962 1.58-1.141 4.097-4.525 2.63-6.594-1.483-2.089-4.575.305-5.575 1.716-1.432 2.023-2.105 4.79-2.858 7.125-.077.238-.152.478-.227.715" id="path103"/><path style="fill-rule:evenodd;stroke:none" d="M36.534 25.145c-1.628-.484-3.643-.323-4.683 1.184-.554.804-.68 3.919 1.084 3.313.307-.106.559-1.471.934-1.786.714-.6 2.053-.58 2.922-.65 1.168-.092 2.38.032 3.529-.126a.058.058 0 0 1 .007-.02c-1.089-.842-2.475-1.508-3.793-1.915" id="path105"/><path style="fill-rule:evenodd;stroke:none" d="M46.753 25.145c1.628-.483 3.644-.324 4.684 1.184.554.804.68 3.918-1.084 3.313-.308-.106-.56-1.471-.934-1.786-.714-.6-2.054-.58-2.922-.65-1.168-.092-2.38.032-3.529-.126a.093.093 0 0 0-.007-.02c1.089-.843 2.475-1.507 3.792-1.915" id="path107"/><path style="fill-rule:evenodd;stroke:none" d="M40.31 29.63c.238 2.034 3.764 1.045 2.078-1.754-1.185-1.967-1.864-.126-2.078 1.754" id="path109"/><path style="fill-rule:evenodd;stroke:none" d="M69.462 216.984c-.818 2.025-1.684 4.087-2.245 6.202-.505 1.905-.908 6.561 1.628 7.475 2.434.877 3.317-3.33 3.285-4.982-.047-2.485-1.228-5.02-2.116-7.302-.181-.465-.365-.93-.552-1.393" id="path111"/><path style="fill-rule:evenodd;stroke:none" d="M69.449 216.938c-2.012.846-4.25 1.676-6.03 2.962-1.581 1.142-4.097 4.525-2.63 6.594 1.483 2.089 4.575-.305 5.574-1.716 1.433-2.023 2.106-4.79 2.859-7.125l.227-.715" id="path113"/><path style="fill-rule:evenodd;stroke:none" d="M69.456 216.938c2.011.846 4.25 1.676 6.03 2.962 1.58 1.142 4.096 4.525 2.628 6.594-1.482 2.089-4.574-.305-5.573-1.716-1.461-2.063-2.145-4.9-2.909-7.282-.06-.185-.118-.373-.176-.558" id="path115"/><path style="fill-rule:evenodd;stroke:none" d="M64.302 216.661c-1.628.483-3.643.322-4.683-1.185-.554-.803-.68-3.918 1.084-3.313.307.106.56 1.47.934 1.785.715.6 2.053.582 2.922.65 1.168.093 2.382-.03 3.529.128a.049.049 0 0 0 .007.02c-1.088.842-2.475 1.507-3.793 1.915" id="path117"/><path style="fill-rule:evenodd;stroke:none" d="M74.522 216.661c1.627.483 3.644.322 4.683-1.185.554-.803.68-3.917-1.084-3.313-.307.106-.559 1.47-.934 1.785-.715.6-2.053.582-2.922.65-1.168.093-2.382-.03-3.529.128a.084.084 0 0 1-.007.02c1.088.842 2.475 1.507 3.793 1.915" id="path119"/><path style="fill-rule:evenodd;stroke:none" d="M68.078 212.176c.237-2.034 3.764-1.046 2.078 1.753-1.185 1.967-1.863.128-2.078-1.753" id="path121"/><path style="fill-rule:evenodd;stroke:none" d="M97.48 216.984c-.818 2.025-1.684 4.087-2.244 6.202-.506 1.905-.908 6.56 1.627 7.475 2.433.877 3.318-3.33 3.286-4.982-.048-2.483-1.228-5.022-2.116-7.302-.182-.465-.366-.93-.553-1.393" id="path123"/><path style="fill-rule:evenodd;stroke:none" d="M97.467 216.938c-2.011.846-4.25 1.676-6.03 2.962-1.58 1.142-4.097 4.525-2.629 6.594 1.483 2.089 4.574-.305 5.574-1.716 1.461-2.063 2.144-4.9 2.909-7.282l.176-.558" id="path125"/><path style="fill-rule:evenodd;stroke:none" d="M97.474 216.938c2.012.846 4.25 1.676 6.03 2.962 1.581 1.142 4.097 4.525 2.628 6.594-1.482 2.089-4.574-.305-5.573-1.716-1.46-2.063-2.144-4.9-2.91-7.282-.058-.184-.116-.374-.175-.558" id="path127"/><path style="fill-rule:evenodd;stroke:none" d="M92.32 216.661c-1.627.483-3.643.322-4.683-1.185-.554-.803-.68-3.918 1.084-3.313.308.106.56 1.47.935 1.785.715.6 2.052.582 2.922.65 1.167.093 2.381-.03 3.528.128a.066.066 0 0 0 .007.02c-1.088.842-2.475 1.507-3.793 1.915" id="path129"/><path style="fill-rule:evenodd;stroke:none" d="M102.54 216.661c1.627.483 3.643.322 4.684-1.185.553-.803.68-3.917-1.084-3.313-.308.106-.56 1.47-.934 1.785-.715.6-2.054.582-2.923.65-1.167.093-2.381-.03-3.529.128a.042.042 0 0 1-.006.02c1.087.842 2.474 1.507 3.793 1.915" id="path131"/><path style="fill-rule:evenodd;stroke:none" d="M96.095 212.176c.24-2.034 3.765-1.046 2.08 1.753-1.185 1.967-1.863.128-2.08-1.753" id="path133"/><path style="fill-rule:evenodd;stroke:none" d="M125.499 216.984c-.819 2.025-1.684 4.087-2.246 6.202-.504 1.905-.908 6.561 1.63 7.475 2.433.877 3.316-3.33 3.284-4.982-.047-2.483-1.226-5.022-2.117-7.302-.18-.465-.365-.93-.551-1.393" id="path135"/><path style="fill-rule:evenodd;stroke:none" d="M125.486 216.938c-2.012.846-4.251 1.676-6.031 2.962-1.58 1.142-4.096 4.525-2.63 6.594 1.483 2.089 4.576-.305 5.575-1.716 1.433-2.023 2.106-4.79 2.86-7.125.075-.237.15-.478.226-.715" id="path137"/><path style="fill-rule:evenodd;stroke:none" d="M125.492 216.938c2.011.846 4.25 1.676 6.031 2.962 1.58 1.142 4.096 4.525 2.628 6.594-1.482 2.089-4.574-.305-5.573-1.716-1.434-2.023-2.106-4.79-2.86-7.125-.076-.237-.151-.478-.226-.715" id="path139"/><path style="fill-rule:evenodd;stroke:none" d="M120.338 216.661c-1.628.483-3.643.322-4.682-1.185-.555-.803-.682-3.917 1.084-3.313.306.106.558 1.47.933 1.785.715.6 2.054.582 2.922.65 1.168.093 2.383-.03 3.53.128a.058.058 0 0 0 .006.02c-1.089.842-2.473 1.507-3.793 1.915" id="path141"/><path style="fill-rule:evenodd;stroke:none" d="M130.558 216.661c1.628.483 3.645.322 4.684-1.185.554-.803.68-3.917-1.084-3.313-.307.106-.559 1.47-.934 1.785-.715.6-2.053.582-2.922.65-1.168.093-2.382-.03-3.529.128a.091.091 0 0 1-.007.02c1.087.842 2.475 1.507 3.792 1.915" id="path143"/><path style="fill-rule:evenodd;stroke:none" d="M124.115 212.176c.237-2.034 3.763-1.046 2.078 1.753-1.186 1.967-1.863.128-2.078-1.753" id="path145"/><path style="fill-rule:evenodd;stroke:none" d="M41.444 216.984c-.819 2.024-1.684 4.087-2.245 6.202-.506 1.905-.908 6.561 1.628 7.475 2.433.877 3.318-3.33 3.285-4.982-.048-2.485-1.228-5.02-2.116-7.302-.181-.465-.366-.93-.552-1.393" id="path147"/><path style="fill-rule:evenodd;stroke:none" d="M41.43 216.938c-2.012.846-4.25 1.676-6.03 2.962-1.58 1.142-4.096 4.525-2.629 6.594 1.482 2.089 4.575-.306 5.574-1.716 1.433-2.023 2.106-4.79 2.859-7.125.076-.236.151-.478.227-.715" id="path149"/><path style="fill-rule:evenodd;stroke:none" d="M41.437 216.938c2.012.846 4.25 1.677 6.03 2.962 1.58 1.141 4.097 4.525 2.63 6.594-1.483 2.089-4.575-.305-5.575-1.716-1.46-2.063-2.144-4.9-2.908-7.282-.06-.184-.118-.374-.177-.558" id="path151"/><path style="fill-rule:evenodd;stroke:none" d="M36.284 216.661c-1.628.483-3.644.322-4.683-1.185-.555-.803-.681-3.918 1.084-3.313.307.106.56 1.47.934 1.785.714.6 2.053.582 2.922.65 1.167.093 2.381-.03 3.528.128a.07.07 0 0 0 .007.02c-1.088.842-2.474 1.507-3.792 1.915" id="path153"/><path style="fill-rule:evenodd;stroke:none" d="M46.503 216.661c1.628.483 3.644.323 4.684-1.185.554-.803.68-3.918-1.084-3.313-.308.106-.56 1.47-.934 1.785-.715.6-2.053.582-2.922.65-1.168.093-2.382-.03-3.53.128a.049.049 0 0 1-.006.02c1.088.842 2.475 1.507 3.792 1.915" id="path155"/><path style="fill-rule:evenodd;stroke:none" d="M40.06 212.176c.238-2.034 3.763-1.046 2.078 1.753-1.185 1.968-1.862.128-2.079-1.753" id="path157"/><path style="fill-rule:evenodd;stroke:none" d="M146.526 218.358c1.906 1.02 3.968 2.278 6.077 2.823 1.92.496 5.555.017 5.904-2.52.338-2.448-3.126-3.548-4.994-3.33-2.33.27-4.773 1.838-6.814 2.93l-.173.097" id="path159"/><path style="fill-rule:evenodd;stroke:none" d="M146.49 218.373c.82 2.599 3.365 12.52 7.947 10.176 2.232-1.142.437-4.921-.732-6.206-1.65-1.81-4.385-2.762-6.596-3.707-.205-.09-.414-.176-.62-.263" id="path161"/><path style="fill-rule:evenodd;stroke:none" d="M146.486 218.365c.822-2.6 3.367-12.526 7.951-10.176 2.23 1.144.438 4.912-.732 6.199-1.65 1.812-4.386 2.767-6.598 3.716l-.621.261" id="path163"/><path style="fill-rule:evenodd;stroke:none" d="M146.246 224.31c.37 1.671.448 4.18-1.028 5.4-.96.795-3.443.533-2.872-1.25.107-.33 1.26-.676 1.548-1.08.594-.838.508-2.402.564-3.367.077-1.348-.046-2.738.11-4.07l.016-.008c.771 1.31 1.324 2.89 1.662 4.375" id="path165"/><path style="fill-rule:evenodd;stroke:none" d="M146.246 212.521c.372-1.673.45-4.18-1.028-5.4-.96-.794-3.446-.536-2.872 1.25.106.327 1.263.673 1.548 1.077.594.837.508 2.405.564 3.37.077 1.348-.046 2.737.11 4.07a.086.086 0 0 1 .016.008c.769-1.31 1.328-2.891 1.662-4.375" id="path167"/><path style="fill-rule:evenodd;stroke:none" d="M142.357 219.954c-1.828-.441-1.047-4.394 1.52-2.396 1.544 1.2.38 2.072-1.52 2.396" id="path169"/><path style="fill-rule:evenodd;stroke:none" d="M146.529 186.042c1.906 1.022 3.969 2.277 6.078 2.824 1.916.496 5.556.018 5.9-2.52.332-2.447-3.125-3.547-4.994-3.331-2.328.267-4.773 1.838-6.81 2.931-.058.03-.118.066-.174.096" id="path171"/><path style="fill-rule:evenodd;stroke:none" d="M146.486 186.058c.824 2.6 3.367 12.521 7.951 10.175 2.231-1.142.438-4.918-.732-6.202-1.653-1.811-4.387-2.763-6.598-3.712-.207-.089-.416-.175-.621-.261" id="path173"/><path style="fill-rule:evenodd;stroke:none" d="M146.49 186.05c.82-2.602 3.363-12.522 7.947-10.176 2.232 1.143.438 4.917-.732 6.201-1.65 1.813-4.385 2.765-6.596 3.713-.205.088-.414.175-.62.262" id="path175"/><path style="fill-rule:evenodd;stroke:none" d="M146.246 191.99c.372 1.677.45 4.176-1.028 5.4-.958.795-3.447.545-2.872-1.245.106-.328 1.263-.674 1.548-1.078.594-.838.508-2.404.564-3.37.077-1.348-.046-2.737.11-4.07a.086.086 0 0 0 .016-.008c.769 1.307 1.327 2.888 1.662 4.37" id="path177"/><path style="fill-rule:evenodd;stroke:none" d="M146.246 180.206c.37-1.672.448-4.18-1.028-5.401-.959-.794-3.449-.534-2.872 1.25.107.327 1.262.673 1.548 1.077.594.839.508 2.404.564 3.37.077 1.349-.046 2.737.11 4.07a.086.086 0 0 1 .016.008c.771-1.31 1.324-2.89 1.662-4.374" id="path179"/><path style="fill-rule:evenodd;stroke:none" d="M142.357 187.639c-1.828-.44-1.045-4.4 1.52-2.402 1.546 1.205.38 2.076-1.52 2.402" id="path181"/><path style="fill-rule:evenodd;stroke:none" d="M146.526 153.726c1.904 1.024 3.972 2.28 6.08 2.824 1.92.496 5.552.017 5.901-2.52.337-2.447-3.125-3.551-4.994-3.336-2.33.27-4.774 1.843-6.814 2.936l-.173.096" id="path183"/><path style="fill-rule:evenodd;stroke:none" d="M146.486 153.741c.824 2.602 3.367 12.523 7.951 10.176 2.231-1.142.438-4.917-.732-6.201-1.653-1.813-4.387-2.765-6.598-3.713l-.621-.262" id="path185"/><path style="fill-rule:evenodd;stroke:none" d="M146.486 153.733c.824-2.6 3.367-12.521 7.951-10.175 2.231 1.142.438 4.918-.732 6.202-1.653 1.811-4.387 2.764-6.598 3.712-.207.089-.416.175-.621.261" id="path187"/><path style="fill-rule:evenodd;stroke:none" d="M146.246 159.678c.37 1.673.448 4.18-1.028 5.401-.96.795-3.446.534-2.872-1.25.106-.328 1.263-.674 1.548-1.078.594-.838.508-2.404.564-3.37.077-1.341-.066-2.759.12-4.073.785 1.275 1.333 2.899 1.668 4.37" id="path189"/><path style="fill-rule:evenodd;stroke:none" d="M146.246 147.89c.37-1.672.448-4.18-1.028-5.4-.96-.797-3.446-.536-2.872 1.25.106.327 1.263.673 1.548 1.076.594.838.508 2.405.564 3.37.077 1.342-.066 2.76.12 4.075.785-1.276 1.333-2.9 1.668-4.371" id="path191"/><path style="fill-rule:evenodd;stroke:none" d="M142.357 155.323c-1.83-.44-1.045-4.391 1.52-2.401 1.548 1.202.376 2.072-1.52 2.401" id="path193"/><path style="fill-rule:evenodd;stroke:none" d="M146.526 89.095c1.905 1.022 3.97 2.28 6.077 2.823 1.92.496 5.555.018 5.904-2.52.338-2.448-3.126-3.548-4.994-3.331-2.33.27-4.773 1.84-6.814 2.932-.057.03-.116.065-.173.096" id="path195"/><path style="fill-rule:evenodd;stroke:none" d="M146.49 89.11c.82 2.6 3.365 12.52 7.947 10.176 2.232-1.142.437-4.921-.732-6.206-1.649-1.81-4.385-2.762-6.596-3.708-.205-.088-.414-.176-.62-.262" id="path197"/><path style="fill-rule:evenodd;stroke:none" d="M146.486 89.103c.822-2.602 3.368-12.527 7.951-10.176 2.23 1.143.438 4.911-.732 6.198-1.65 1.813-4.387 2.767-6.598 3.716l-.621.262" id="path199"/><path style="fill-rule:evenodd;stroke:none" d="M146.246 95.046c.37 1.672.448 4.18-1.028 5.402-1.017.843-3.412.49-2.848-1.297.085-.267 1.32-.75 1.588-1.166.557-.87.46-2.441.51-3.423.065-1.276-.08-2.649.116-3.89.771 1.31 1.324 2.89 1.662 4.374" id="path201"/><path style="fill-rule:evenodd;stroke:none" d="M146.246 83.259c.372-1.674.45-4.18-1.028-5.402-.959-.793-3.447-.535-2.872 1.25.106.329 1.263.674 1.548 1.078.594.837.508 2.405.564 3.37.077 1.348-.046 2.737.11 4.07a.065.065 0 0 1 .016.008c.77-1.309 1.328-2.89 1.662-4.374" id="path203"/><path style="fill-rule:evenodd;stroke:none" d="M142.357 90.691c-1.828-.441-1.047-4.394 1.52-2.397 1.544 1.202.38 2.072-1.52 2.397" id="path205"/><path style="fill-rule:evenodd;stroke:none" d="M146.529 56.78c1.906 1.022 3.969 2.276 6.078 2.823 1.917.497 5.556.018 5.9-2.52.332-2.447-3.125-3.547-4.994-3.332-2.328.269-4.773 1.84-6.81 2.932-.058.03-.118.066-.174.096" id="path207"/><path style="fill-rule:evenodd;stroke:none" d="M146.486 56.794c.824 2.601 3.367 12.522 7.951 10.176 2.231-1.141.438-4.917-.732-6.201-1.653-1.812-4.387-2.764-6.598-3.713l-.621-.262" id="path209"/><path style="fill-rule:evenodd;stroke:none" d="M146.49 56.787c.82-2.601 3.363-12.522 7.947-10.176 2.232 1.142.437 4.917-.732 6.202-1.65 1.812-4.384 2.764-6.596 3.712-.205.088-.414.175-.62.262" id="path211"/><path style="fill-rule:evenodd;stroke:none" d="M146.246 62.727c.372 1.677.45 4.177-1.028 5.4-.958.795-3.448.545-2.872-1.245.106-.328 1.263-.674 1.548-1.078.594-.837.508-2.405.564-3.37.077-1.348-.046-2.737.11-4.07a.065.065 0 0 0 .016-.008c.769 1.308 1.327 2.889 1.662 4.37" id="path213"/><path style="fill-rule:evenodd;stroke:none" d="M146.246 50.943c.372-1.672.448-4.18-1.028-5.401-.959-.794-3.443-.538-2.872 1.246.107.331 1.26.675 1.548 1.081.594.839.508 2.404.564 3.37.077 1.349-.046 2.738.11 4.07a.065.065 0 0 1 .016.008c.771-1.31 1.324-2.89 1.662-4.374" id="path215"/><path style="fill-rule:evenodd;stroke:none" d="M142.357 58.375c-1.828-.438-1.046-4.398 1.52-2.4 1.546 1.204.38 2.076-1.52 2.4" id="path217"/><path style="fill-rule:evenodd;stroke:none" d="M146.526 24.463c1.903 1.025 3.972 2.28 6.08 2.824 1.92.496 5.552.017 5.901-2.52.337-2.447-3.125-3.552-4.994-3.335-2.33.27-4.774 1.842-6.814 2.935-.057.031-.116.066-.173.096" id="path219"/><path style="fill-rule:evenodd;stroke:none" d="M146.486 24.479c.824 2.6 3.367 12.522 7.951 10.175 2.231-1.141.438-4.917-.732-6.201-1.653-1.812-4.387-2.764-6.598-3.713l-.621-.261" id="path221"/><path style="fill-rule:evenodd;stroke:none" d="M146.486 24.471c.824-2.6 3.367-12.522 7.951-10.176 2.231 1.142.438 4.918-.732 6.202-1.653 1.812-4.387 2.764-6.598 3.712-.207.089-.416.176-.621.262" id="path223"/><path style="fill-rule:evenodd;stroke:none" d="M146.246 30.415c.37 1.672.448 4.18-1.028 5.401-.96.795-3.446.535-2.872-1.25.106-.328 1.263-.674 1.548-1.077.594-.838.508-2.405.564-3.37.077-1.342-.066-2.76.12-4.074.785 1.274 1.333 2.9 1.668 4.37" id="path225"/><path style="fill-rule:evenodd;stroke:none" d="M146.246 18.627c.37-1.672.448-4.18-1.028-5.4-.96-.796-3.446-.536-2.872 1.25.106.327 1.263.673 1.548 1.077.594.838.508 2.404.564 3.37.077 1.342-.066 2.76.12 4.074.785-1.276 1.333-2.9 1.668-4.37" id="path227"/><path style="fill-rule:evenodd;stroke:none" d="M142.357 26.06c-1.83-.44-1.045-4.391 1.52-2.4 1.548 1.2.376 2.071-1.52 2.4" id="path229"/><path style="fill-rule:evenodd;stroke:none" d="M146.526 121.41c1.903 1.025 3.972 2.28 6.08 2.824 1.92.495 5.552.017 5.901-2.52.337-2.448-3.125-3.548-4.994-3.331-2.33.27-4.773 1.839-6.814 2.931-.057.03-.116.066-.173.096" id="path231"/><path style="fill-rule:evenodd;stroke:none" d="M146.486 121.426c.824 2.6 3.367 12.522 7.951 10.176 2.231-1.142.438-4.917-.732-6.203-1.653-1.811-4.387-2.763-6.598-3.712l-.621-.261" id="path233"/><path style="fill-rule:evenodd;stroke:none" d="M146.486 121.418c.824-2.6 3.367-12.522 7.951-10.175 2.231 1.141.438 4.917-.732 6.2-1.653 1.813-4.387 2.766-6.598 3.714l-.621.261" id="path235"/><path style="fill-rule:evenodd;stroke:none" d="M146.246 127.362c.37 1.672.448 4.18-1.028 5.4-.96.798-3.443.536-2.872-1.25.106-.327 1.262-.677 1.548-1.08.594-.838.508-2.405.564-3.37.077-1.347-.046-2.735.11-4.067.006-.002.012-.004.016-.008.771 1.31 1.324 2.89 1.662 4.375" id="path237"/><path style="fill-rule:evenodd;stroke:none" d="M146.246 115.574c.37-1.673.449-4.178-1.028-5.401-.96-.795-3.446-.535-2.872 1.25.106.328 1.263.675 1.548 1.078.594.838.508 2.404.564 3.37.077 1.341-.066 2.76.12 4.074.783-1.277 1.333-2.9 1.668-4.37" id="path239"/><path style="fill-rule:evenodd;stroke:none" d="M142.357 123.003c-1.824-.429-1.048-4.396 1.52-2.393 1.54 1.202.376 2.075-1.52 2.393" id="path241"/><path style="fill-rule:evenodd;stroke:none" d="M20.817 218.358c-1.906 1.02-3.968 2.278-6.077 2.823-1.92.496-5.554.017-5.904-2.52-.338-2.448 3.125-3.548 4.993-3.33 2.331.27 4.775 1.838 6.815 2.93l.173.097" id="path243"/><path style="fill-rule:evenodd;stroke:none" d="M20.854 218.373c-.82 2.599-3.366 12.52-7.949 10.176-2.232-1.142-.436-4.921.734-6.206 1.65-1.81 4.384-2.762 6.594-3.707.206-.09.414-.176.62-.263" id="path245"/><path style="fill-rule:evenodd;stroke:none" d="M20.857 218.365c-.822-2.601-3.368-12.525-7.952-10.176-2.23 1.144-.437 4.912.734 6.199 1.65 1.811 4.384 2.767 6.597 3.716.206.088.415.174.62.261" id="path247"/><path style="fill-rule:evenodd;stroke:none" d="M21.097 224.31c-.371 1.671-.448 4.18 1.028 5.4.96.795 3.443.533 2.871-1.25-.106-.33-1.26-.675-1.547-1.08-.594-.838-.509-2.402-.564-3.367-.077-1.348.046-2.738-.11-4.07l-.017-.008c-.77 1.31-1.322 2.89-1.66 4.375" id="path249"/><path style="fill-rule:evenodd;stroke:none" d="M21.097 212.521c-.373-1.673-.45-4.18 1.028-5.4.96-.794 3.446-.536 2.871 1.25-.105.327-1.261.673-1.547 1.077-.594.837-.509 2.405-.564 3.37-.077 1.347.046 2.738-.11 4.07a.108.108 0 0 0-.017.008c-.769-1.31-1.327-2.891-1.66-4.375" id="path251"/><path style="fill-rule:evenodd;stroke:none" d="M24.986 219.954c1.829-.442 1.046-4.393-1.52-2.396-1.545 1.2-.38 2.072 1.52 2.396" id="path253"/><path style="fill-rule:evenodd;stroke:none" d="M20.813 186.042c-1.907 1.022-3.967 2.277-6.077 2.824-1.917.496-5.555.018-5.9-2.52-.333-2.447 3.124-3.547 4.993-3.331 2.33.267 4.774 1.839 6.811 2.931.058.03.117.066.173.096" id="path255"/><path style="fill-rule:evenodd;stroke:none" d="M20.857 186.058c-.824 2.6-3.367 12.521-7.952 10.175-2.23-1.141-.437-4.918.734-6.202 1.652-1.811 4.385-2.763 6.597-3.712.206-.089.415-.175.62-.261" id="path257"/><path style="fill-rule:evenodd;stroke:none" d="M20.854 186.05c-.822-2.602-3.364-12.522-7.949-10.176-2.23 1.142-.436 4.916.734 6.201 1.65 1.812 4.383 2.766 6.594 3.713l.62.262" id="path259"/><path style="fill-rule:evenodd;stroke:none" d="M21.097 191.99c-.372 1.677-.45 4.177 1.028 5.4.958.795 3.447.545 2.871-1.245-.105-.329-1.261-.674-1.547-1.078-.594-.838-.509-2.404-.564-3.37-.077-1.348.046-2.737-.11-4.07a.108.108 0 0 1-.017-.008c-.768 1.308-1.326 2.888-1.66 4.37" id="path261"/><path style="fill-rule:evenodd;stroke:none" d="M21.097 180.206c-.371-1.673-.448-4.18 1.028-5.401.959-.794 3.449-.534 2.871 1.25-.106.327-1.261.673-1.547 1.077-.595.839-.509 2.404-.564 3.37-.077 1.349.046 2.737-.11 4.07a.108.108 0 0 0-.017.008c-.77-1.31-1.322-2.89-1.66-4.374" id="path263"/><path style="fill-rule:evenodd;stroke:none" d="M24.986 187.639c1.83-.44 1.044-4.4-1.52-2.402-1.547 1.205-.38 2.076 1.52 2.402" id="path265"/><path style="fill-rule:evenodd;stroke:none" d="M20.817 153.726c-1.904 1.024-3.972 2.28-6.08 2.824-1.92.496-5.552.017-5.901-2.52-.337-2.447 3.123-3.551 4.993-3.336 2.332.27 4.775 1.843 6.815 2.936.057.031.116.066.173.096" id="path267"/><path style="fill-rule:evenodd;stroke:none" d="M20.857 153.741c-.824 2.602-3.366 12.522-7.952 10.176-2.23-1.14-.437-4.917.734-6.201 1.651-1.812 4.385-2.764 6.597-3.713l.62-.262" id="path269"/><path style="fill-rule:evenodd;stroke:none" d="M20.857 153.733c-.824-2.6-3.367-12.52-7.952-10.175-2.23 1.141-.437 4.918.734 6.202 1.652 1.811 4.385 2.763 6.597 3.712.206.089.415.175.62.261" id="path271"/><path style="fill-rule:evenodd;stroke:none" d="M21.097 159.678c-.371 1.673-.448 4.18 1.028 5.401.96.795 3.446.534 2.871-1.25-.105-.328-1.261-.674-1.547-1.078-.595-.838-.509-2.404-.564-3.37-.077-1.341.067-2.76-.12-4.073-.785 1.276-1.332 2.899-1.668 4.37" id="path273"/><path style="fill-rule:evenodd;stroke:none" d="M21.097 147.89c-.371-1.672-.448-4.18 1.028-5.4.96-.796 3.445-.536 2.871 1.25-.105.327-1.262.673-1.547 1.076-.595.838-.509 2.405-.564 3.37-.077 1.342.067 2.761-.12 4.075-.786-1.277-1.332-2.9-1.668-4.371" id="path275"/><path style="fill-rule:evenodd;stroke:none" d="M24.986 155.323c1.83-.441 1.044-4.39-1.52-2.401-1.55 1.202-.376 2.072 1.52 2.401" id="path277"/><path style="fill-rule:evenodd;stroke:none" d="M20.817 89.095c-1.904 1.022-3.97 2.279-6.077 2.823-1.92.496-5.554.018-5.904-2.52-.337-2.448 3.125-3.548 4.993-3.331 2.332.27 4.774 1.84 6.815 2.932.057.03.116.065.173.096" id="path279"/><path style="fill-rule:evenodd;stroke:none" d="M20.854 89.11c-.821 2.6-3.366 12.52-7.949 10.176-2.232-1.142-.436-4.921.734-6.206 1.649-1.81 4.384-2.763 6.594-3.708l.62-.262" id="path281"/><path style="fill-rule:evenodd;stroke:none" d="M20.857 89.103c-.822-2.602-3.368-12.526-7.952-10.176-2.23 1.143-.438 4.911.734 6.198 1.65 1.813 4.385 2.767 6.597 3.716l.62.262" id="path283"/><path style="fill-rule:evenodd;stroke:none" d="M21.097 95.046c-.371 1.673-.448 4.18 1.028 5.402 1.018.843 3.412.49 2.848-1.297-.084-.267-1.322-.75-1.588-1.166-.558-.87-.46-2.441-.51-3.423-.065-1.276.081-2.65-.117-3.89-.77 1.31-1.322 2.89-1.66 4.374" id="path285"/><path style="fill-rule:evenodd;stroke:none" d="M21.097 83.259c-.372-1.674-.45-4.18 1.028-5.402.96-.793 3.446-.535 2.871 1.25-.105.329-1.261.674-1.547 1.078-.594.837-.509 2.405-.564 3.37-.077 1.348.046 2.737-.11 4.07a.077.077 0 0 0-.017.008c-.769-1.31-1.327-2.89-1.66-4.374" id="path287"/><path style="fill-rule:evenodd;stroke:none" d="M24.986 90.691c1.829-.442 1.046-4.393-1.52-2.397-1.546 1.203-.38 2.072 1.52 2.397" id="path289"/><path style="fill-rule:evenodd;stroke:none" d="M20.813 56.78c-1.906 1.022-3.967 2.276-6.077 2.823-1.917.497-5.555.018-5.9-2.52-.333-2.447 3.124-3.547 4.993-3.332 2.33.269 4.774 1.84 6.811 2.932.058.03.117.066.173.096" id="path291"/><path style="fill-rule:evenodd;stroke:none" d="M20.857 56.794c-.824 2.602-3.367 12.521-7.952 10.176-2.23-1.14-.437-4.917.734-6.201 1.652-1.812 4.385-2.764 6.597-3.713l.62-.262" id="path293"/><path style="fill-rule:evenodd;stroke:none" d="M20.854 56.787c-.821-2.601-3.364-12.521-7.949-10.176-2.231 1.141-.436 4.917.734 6.202 1.65 1.811 4.383 2.764 6.594 3.712l.62.262" id="path295"/><path style="fill-rule:evenodd;stroke:none" d="M21.097 62.727c-.372 1.677-.45 4.177 1.028 5.4.958.794 3.447.545 2.871-1.245-.105-.328-1.261-.674-1.547-1.078-.594-.837-.509-2.405-.564-3.37-.077-1.348.046-2.737-.11-4.07a.077.077 0 0 1-.017-.008c-.768 1.308-1.326 2.888-1.66 4.37" id="path297"/><path style="fill-rule:evenodd;stroke:none" d="M21.097 50.943c-.371-1.673-.448-4.18 1.028-5.401.958-.794 3.442-.538 2.871 1.246-.106.331-1.26.675-1.547 1.081-.595.839-.509 2.404-.564 3.37-.077 1.348.046 2.738-.11 4.07a.068.068 0 0 0-.017.008c-.77-1.31-1.322-2.89-1.66-4.374" id="path299"/><path style="fill-rule:evenodd;stroke:none" d="M24.986 58.375c1.829-.44 1.045-4.398-1.52-2.4-1.547 1.204-.38 2.076 1.52 2.4" id="path301"/><path style="fill-rule:evenodd;stroke:none" d="M20.817 24.463c-1.904 1.025-3.972 2.28-6.08 2.824-1.92.496-5.552.017-5.901-2.52-.337-2.447 3.123-3.552 4.993-3.335 2.332.27 4.775 1.842 6.815 2.935.057.031.116.066.173.096" id="path303"/><path style="fill-rule:evenodd;stroke:none" d="M20.857 24.479C20.033 27.08 17.49 37 12.905 34.654c-2.23-1.14-.437-4.917.734-6.201 1.652-1.812 4.385-2.764 6.597-3.713.206-.088.416-.175.62-.261" id="path305"/><path style="fill-rule:evenodd;stroke:none" d="M20.857 24.471c-.824-2.6-3.367-12.52-7.952-10.176-2.23 1.142-.437 4.918.734 6.202 1.652 1.812 4.385 2.764 6.597 3.712.206.089.416.176.62.262" id="path307"/><path style="fill-rule:evenodd;stroke:none" d="M21.097 30.415c-.371 1.672-.448 4.18 1.028 5.401.96.795 3.446.535 2.871-1.25-.105-.328-1.261-.674-1.547-1.077-.595-.838-.509-2.405-.564-3.37-.077-1.342.067-2.761-.12-4.074-.786 1.275-1.333 2.9-1.668 4.37" id="path309"/><path style="fill-rule:evenodd;stroke:none" d="M21.097 18.627c-.371-1.672-.448-4.18 1.028-5.4.96-.796 3.446-.536 2.871 1.25-.105.327-1.261.673-1.547 1.077-.595.838-.509 2.404-.564 3.37-.077 1.341.067 2.76-.12 4.074-.785-1.277-1.332-2.9-1.668-4.37" id="path311"/><path style="fill-rule:evenodd;stroke:none" d="M24.986 26.06c1.83-.44 1.044-4.39-1.52-2.4-1.55 1.2-.376 2.072 1.52 2.4" id="path313"/><path style="fill-rule:evenodd;stroke:none" d="M20.817 121.41c-1.904 1.025-3.973 2.28-6.08 2.824-1.921.495-5.552.017-5.901-2.52-.337-2.448 3.124-3.548 4.993-3.331 2.332.27 4.774 1.839 6.815 2.931.057.03.116.066.173.096" id="path315"/><path style="fill-rule:evenodd;stroke:none" d="M20.857 121.426c-.824 2.6-3.367 12.52-7.952 10.176-2.23-1.142-.437-4.917.734-6.203 1.652-1.81 4.385-2.763 6.597-3.712.206-.088.415-.174.62-.261" id="path317"/><path style="fill-rule:evenodd;stroke:none" d="M20.857 121.418c-.824-2.601-3.367-12.521-7.952-10.175-2.23 1.14-.437 4.917.734 6.2 1.652 1.812 4.385 2.765 6.597 3.714.206.088.415.174.62.261" id="path319"/><path style="fill-rule:evenodd;stroke:none" d="M21.097 127.362c-.371 1.673-.448 4.18 1.028 5.4.96.798 3.443.536 2.871-1.25-.105-.328-1.261-.676-1.547-1.08-.595-.837-.509-2.405-.564-3.37-.077-1.347.046-2.735-.11-4.067-.006-.002-.012-.004-.017-.008-.77 1.31-1.322 2.89-1.66 4.375" id="path321"/><path style="fill-rule:evenodd;stroke:none" d="M21.097 115.574c-.37-1.674-.45-4.178 1.028-5.401.96-.795 3.446-.534 2.871 1.25-.105.328-1.262.674-1.547 1.078-.595.838-.509 2.404-.564 3.37-.077 1.34.067 2.76-.12 4.074-.784-1.278-1.332-2.9-1.668-4.37" id="path323"/><path style="fill-rule:evenodd;stroke:none" d="M24.986 123.003c1.825-.43 1.047-4.396-1.52-2.393-1.54 1.202-.377 2.075 1.52 2.393" id="path325"/><path style="fill:none;stroke-width:.0268263px;stroke-miterlimit:10" d="M73.15 146.582h.028" id="path327"/><path style="fill-rule:evenodd;stroke:#fb0f0c;stroke-width:.0268263px;stroke-miterlimit:10" d="M75.666 112.247c1.648 0 16.01-.137 16.01.134V127.827c0 .433.312 2.552 0 2.886-1.018 1.095-16.01-.645-16.01-.134v-18.332" id="path329"/><path style="fill:#fff;fill-rule:evenodd;stroke:none" d="m76.667 115.709 2.001-2.308 1 3.462-3.001-1.154" id="path331"/><path style="fill:#fff;fill-rule:evenodd;stroke:none" d="m88.675 113.4 2 2.309c-1 .385-2 .77-3.002 1.154l1.002-3.462" id="path333"/><path style="fill:#fff;fill-rule:evenodd;stroke:none" d="m88.738 129.493 2.002-2.308-3.002-1.155 1 3.463" id="path335"/><path style="fill:#fff;fill-rule:evenodd;stroke:none" d="m78.668 129.559-2.001-2.308 3.001-1.154-1 3.462" id="path337"/><path style="fill:#fff;fill-rule:evenodd;stroke:none" d="m83.671 112.247-1.979 6.847c-.245.85-5.07 2.018-6.026 2.385.957.369 5.78 1.537 6.026 2.387l1.98 6.847 1.978-6.847c.246-.85 5.07-2.018 6.026-2.387-.956-.367-5.78-1.536-6.026-2.385-.66-2.282-1.318-4.565-1.979-6.847" id="path339"/><path style="fill:#fff;fill-rule:evenodd;stroke:#fff;stroke-width:.0268263px;stroke-miterlimit:10" d="m132.704 115.709-.978 4.509c-.113.524-3.412 1.085-4.025 1.261.613.178 3.912.739 4.025 1.262l.978 4.51.977-4.51c.113-.523 3.412-1.084 4.026-1.262-.614-.176-3.913-.737-4.026-1.261l-.977-4.509" id="path341"/><path style="fill:#fff;fill-rule:evenodd;stroke:#fff;stroke-width:.0268263px;stroke-miterlimit:10" d="m132.693 99.543-.977 4.51c-.113.523-3.412 1.084-4.026 1.261.614.177 3.913.738 4.026 1.262l.977 4.509.978-4.51c.114-.523 3.412-1.084 4.026-1.261-.614-.177-3.912-.738-4.026-1.261l-.978-4.51" id="path343"/><path style="fill:#fff;fill-rule:evenodd;stroke:#fff;stroke-width:.0268263px;stroke-miterlimit:10" d="m132.72 131.855-.976 4.51c-.115.523-3.412 1.084-4.027 1.261.614.177 3.912.738 4.027 1.262l.976 4.51.978-4.51c.114-.524 3.413-1.085 4.026-1.262-.613-.177-3.912-.738-4.026-1.262a7333.09 7333.09 0 0 0-.978-4.509" id="path345"/><path style="fill:#fff;fill-rule:evenodd;stroke:#fff;stroke-width:.0268263px;stroke-miterlimit:10" d="m118.694 115.709-.978 4.509c-.113.524-3.412 1.085-4.025 1.261.613.178 3.912.739 4.025 1.262.326 1.503.653 3.006.978 4.51l.977-4.51c.114-.523 3.412-1.084 4.026-1.262-.614-.176-3.912-.737-4.026-1.261l-.977-4.509" id="path347"/><path style="fill:#fff;fill-rule:evenodd;stroke:#fff;stroke-width:.0268263px;stroke-miterlimit:10" d="m118.684 99.543-.977 4.51c-.114.523-3.413 1.084-4.026 1.261.613.177 3.912.738 4.026 1.262l.977 4.509.978-4.51c.113-.523 3.412-1.084 4.025-1.261-.613-.177-3.912-.738-4.025-1.261l-.978-4.51" id="path349"/><path style="fill:#fff;fill-rule:evenodd;stroke:#fff;stroke-width:.0268263px;stroke-miterlimit:10" d="m118.71 131.855-.976 4.51c-.113.523-3.412 1.084-4.026 1.261.614.177 3.913.738 4.026 1.262l.976 4.51.979-4.51c.113-.524 3.412-1.085 4.025-1.262-.613-.177-3.912-.738-4.025-1.262l-.979-4.509" id="path351"/><path style="fill:#fff;fill-rule:evenodd;stroke:#fff;stroke-width:.0268263px;stroke-miterlimit:10" d="m90.675 163.028-.976 4.51c-.114.524-3.412 1.084-4.026 1.26.614.178 3.912.74 4.026 1.264l.976 4.507.979-4.507c.113-.525 3.412-1.086 4.025-1.263-.613-.177-3.912-.737-4.025-1.26l-.979-4.51" id="path353"/><path style="fill:#fff;fill-rule:evenodd;stroke:#fff;stroke-width:.0268263px;stroke-miterlimit:10" d="m76.667 163.028-.978 4.51c-.113.524-3.412 1.084-4.026 1.26.614.178 3.913.74 4.026 1.264l.978 4.507.977-4.507c.114-.525 3.413-1.086 4.026-1.263-.613-.177-3.912-.737-4.026-1.26l-.977-4.51" id="path355"/><path style="fill:#fff;fill-rule:evenodd;stroke:#fff;stroke-width:.0268263px;stroke-miterlimit:10" d="m104.675 163.001-.977 4.51c-.114.523-3.413 1.084-4.027 1.261.614.177 3.913.739 4.027 1.262l.977 4.509.977-4.509c.114-.523 3.412-1.085 4.026-1.262-.614-.177-3.912-.738-4.026-1.261-.325-1.503-.65-3.006-.977-4.51" id="path357"/><path style="fill:#fff;fill-rule:evenodd;stroke:#fff;stroke-width:.0268263px;stroke-miterlimit:10" d="m62.697 163.044-.977 4.509c-.113.524-3.412 1.085-4.026 1.261.614.177 3.913.738 4.026 1.262l.977 4.509.978-4.509c.114-.524 3.412-1.085 4.026-1.262-.614-.176-3.912-.737-4.026-1.261l-.978-4.51" id="path359"/><path style="fill:#fff;fill-rule:evenodd;stroke:#fff;stroke-width:.0268263px;stroke-miterlimit:10" d="m132.673 163.024-.976 4.51c-.114.524-3.413 1.084-4.028 1.262.615.176 3.914.737 4.028 1.262l.976 4.507c.327-1.502.652-3.005.978-4.507.113-.525 3.412-1.086 4.026-1.262-.614-.178-3.913-.738-4.026-1.262l-.978-4.51" id="path361"/><path style="fill:#fff;fill-rule:evenodd;stroke:#fff;stroke-width:.0268263px;stroke-miterlimit:10" d="m118.664 163.024-.977 4.51c-.114.524-3.412 1.084-4.026 1.262.614.176 3.912.737 4.026 1.262l.977 4.507.978-4.507c.113-.525 3.412-1.086 4.025-1.262-.613-.178-3.912-.738-4.025-1.262l-.978-4.51" id="path363"/><path style="fill:#fff;fill-rule:evenodd;stroke:#fff;stroke-width:.0268263px;stroke-miterlimit:10" d="m90.675 179.187-.976 4.508c-.114.524-3.412 1.085-4.026 1.262.614.177 3.912.737 4.026 1.262l.976 4.509.979-4.51c.113-.524 3.412-1.084 4.025-1.261-.613-.177-3.912-.738-4.025-1.262l-.979-4.508" id="path365"/><path style="fill:#fff;fill-rule:evenodd;stroke:#fff;stroke-width:.0268263px;stroke-miterlimit:10" d="m76.667 179.187-.978 4.508c-.113.524-3.412 1.085-4.026 1.262.614.177 3.913.737 4.026 1.262l.978 4.509.977-4.51c.114-.524 3.413-1.084 4.026-1.261-.613-.177-3.912-.738-4.026-1.262l-.977-4.508" id="path367"/><path style="fill:#fff;fill-rule:evenodd;stroke:#fff;stroke-width:.0268263px;stroke-miterlimit:10" d="m104.675 179.16-.977 4.509c-.114.523-3.413 1.084-4.027 1.262.614.175 3.913.737 4.027 1.261l.977 4.508.977-4.508c.114-.524 3.412-1.086 4.026-1.261-.614-.178-3.912-.739-4.026-1.262-.325-1.504-.65-3.007-.977-4.51" id="path369"/><path style="fill:#fff;fill-rule:evenodd;stroke:#fff;stroke-width:.0268263px;stroke-miterlimit:10" d="m62.697 179.202-.977 4.509c-.113.523-3.412 1.085-4.026 1.262.614.176 3.913.737 4.026 1.261l.977 4.51.978-4.51c.114-.524 3.412-1.085 4.026-1.261-.614-.177-3.912-.739-4.026-1.262l-.978-4.509" id="path371"/><path style="fill:#fff;fill-rule:evenodd;stroke:#fff;stroke-width:.0268263px;stroke-miterlimit:10" d="m132.673 179.183-.976 4.508c-.114.525-3.413 1.085-4.028 1.262.615.177 3.914.738 4.028 1.262l.976 4.509c.327-1.503.652-3.006.978-4.51.113-.523 3.412-1.084 4.026-1.26-.614-.178-3.913-.738-4.026-1.263l-.978-4.508" id="path373"/><path style="fill:#fff;fill-rule:evenodd;stroke:#fff;stroke-width:.0268263px;stroke-miterlimit:10" d="m118.664 179.183-.977 4.508c-.114.525-3.412 1.085-4.026 1.262.614.177 3.912.738 4.026 1.262l.977 4.509.978-4.51c.113-.523 3.412-1.084 4.025-1.26-.613-.178-3.912-.738-4.025-1.263l-.978-4.508" id="path375"/><path style="fill:#fff;fill-rule:evenodd;stroke:#fff;stroke-width:.0268263px;stroke-miterlimit:10" d="m90.675 195.345-.976 4.509c-.114.523-3.412 1.084-4.026 1.26.614.178 3.912.739 4.026 1.262l.976 4.51.979-4.51c.113-.523 3.412-1.084 4.025-1.262-.613-.176-3.912-.737-4.025-1.26l-.979-4.51" id="path377"/><path style="fill:#fff;fill-rule:evenodd;stroke:#fff;stroke-width:.0268263px;stroke-miterlimit:10" d="m76.667 195.345-.978 4.509c-.113.523-3.412 1.084-4.026 1.26.614.178 3.913.739 4.026 1.262l.978 4.51.977-4.51c.114-.523 3.413-1.084 4.026-1.262-.613-.176-3.912-.737-4.026-1.26l-.977-4.51" id="path379"/><path style="fill:#fff;fill-rule:evenodd;stroke:#fff;stroke-width:.0268263px;stroke-miterlimit:10" d="m104.675 195.317-.977 4.51c-.114.524-3.413 1.084-4.027 1.26.614.178 3.913.738 4.027 1.263l.977 4.508.977-4.508c.114-.525 3.412-1.085 4.026-1.262-.614-.177-3.912-.737-4.026-1.26-.325-1.505-.65-3.008-.977-4.51" id="path381"/><path style="fill:#fff;fill-rule:evenodd;stroke:#fff;stroke-width:.0268263px;stroke-miterlimit:10" d="m62.697 195.36-.977 4.508c-.113.524-3.412 1.085-4.026 1.262.614.178 3.913.738 4.026 1.262.326 1.504.652 3.005.977 4.51l.978-4.51c.114-.524 3.412-1.084 4.026-1.262-.614-.177-3.912-.738-4.026-1.262l-.978-4.508" id="path383"/><path style="fill:#fff;fill-rule:evenodd;stroke:#fff;stroke-width:.0268263px;stroke-miterlimit:10" d="m132.673 195.34-.976 4.51c-.114.523-3.413 1.085-4.028 1.261.615.177 3.914.738 4.028 1.261l.976 4.51.978-4.51c.113-.523 3.412-1.084 4.026-1.26-.614-.177-3.913-.739-4.026-1.262-.326-1.503-.651-3.007-.978-4.51" id="path385"/><path style="fill:#fff;fill-rule:evenodd;stroke:#fff;stroke-width:.0268263px;stroke-miterlimit:10" d="m118.664 195.34-.977 4.51c-.114.523-3.412 1.085-4.026 1.261.614.177 3.912.738 4.026 1.261l.977 4.51.978-4.51c.113-.523 3.412-1.084 4.025-1.26-.613-.177-3.912-.739-4.025-1.262l-.978-4.51" id="path387"/><path style="fill:#fff;fill-rule:evenodd;stroke:#fff;stroke-width:.0268263px;stroke-miterlimit:10" d="m90.675 148.024-.976 4.51c-.114.524-3.412 1.084-4.026 1.262.614.177 3.912.737 4.026 1.262l.976 4.507.979-4.507c.113-.525 3.412-1.086 4.025-1.262-.613-.178-3.912-.738-4.025-1.262l-.979-4.51" id="path389"/><path style="fill:#fff;fill-rule:evenodd;stroke:#fff;stroke-width:.0268263px;stroke-miterlimit:10" d="m76.667 148.024-.978 4.51c-.113.524-3.412 1.084-4.026 1.262.614.176 3.913.737 4.026 1.262l.978 4.507.977-4.507c.114-.525 3.413-1.086 4.026-1.262-.613-.178-3.912-.738-4.026-1.262l-.977-4.51" id="path391"/><path style="fill:#fff;fill-rule:evenodd;stroke:#fff;stroke-width:.0268263px;stroke-miterlimit:10" d="m104.675 147.998-.977 4.509c-.114.523-3.413 1.085-4.027 1.262.614.176 3.913.738 4.027 1.261l.977 4.51.977-4.51c.114-.523 3.412-1.085 4.026-1.261-.614-.177-3.912-.739-4.026-1.262-.325-1.503-.65-3.006-.977-4.509" id="path393"/><path style="fill:#fff;fill-rule:evenodd;stroke:#fff;stroke-width:.0268263px;stroke-miterlimit:10" d="m62.697 148.04-.977 4.51c-.113.523-3.412 1.084-4.026 1.26.614.177 3.913.739 4.026 1.263l.977 4.508.978-4.508c.114-.524 3.412-1.086 4.026-1.262-.614-.177-3.912-.738-4.026-1.261l-.978-4.51" id="path395"/><path style="fill:#fff;fill-rule:evenodd;stroke:#fff;stroke-width:.0268263px;stroke-miterlimit:10" d="m132.673 148.02-.976 4.51c-.114.524-3.413 1.084-4.028 1.262.615.177 3.914.737 4.028 1.262l.976 4.508c.327-1.502.652-3.006.978-4.508.113-.525 3.412-1.085 4.026-1.262-.614-.178-3.913-.738-4.026-1.262l-.978-4.51" id="path397"/><path style="fill:#fff;fill-rule:evenodd;stroke:#fff;stroke-width:.0268263px;stroke-miterlimit:10" d="m118.664 148.02-.977 4.51c-.114.524-3.412 1.084-4.026 1.262.614.177 3.912.737 4.026 1.262l.977 4.508.978-4.508c.113-.525 3.412-1.085 4.025-1.262-.613-.178-3.912-.738-4.025-1.262l-.978-4.51" id="path399"/><path style="fill:#fff;fill-rule:evenodd;stroke:#fff;stroke-width:.0268263px;stroke-miterlimit:10" d="m76.667 83.394-.978 4.508c-.113.524-3.412 1.085-4.026 1.262.614.177 3.913.738 4.026 1.262l.978 4.509.977-4.51c.114-.523 3.413-1.084 4.026-1.26-.613-.178-3.912-.739-4.026-1.263l-.977-4.508" id="path401"/><path style="fill:#fff;fill-rule:evenodd;stroke:#fff;stroke-width:.0268263px;stroke-miterlimit:10" d="m62.657 83.394-.977 4.508c-.113.524-3.412 1.085-4.026 1.262.614.177 3.913.738 4.026 1.262l.977 4.509.978-4.51c.114-.523 3.412-1.084 4.026-1.26-.614-.178-3.912-.739-4.026-1.263l-.978-4.508" id="path403"/><path style="fill:#fff;fill-rule:evenodd;stroke:#fff;stroke-width:.0268263px;stroke-miterlimit:10" d="m104.681 83.394-.976 4.508c-.114.524-3.413 1.085-4.027 1.262.614.177 3.913.738 4.027 1.262l.976 4.509.979-4.51c.113-.523 3.412-1.084 4.025-1.26-.613-.178-3.912-.739-4.025-1.263l-.979-4.508" id="path405"/><path style="fill:#fff;fill-rule:evenodd;stroke:#fff;stroke-width:.0268263px;stroke-miterlimit:10" d="M90.67 83.394c-.327 1.502-.653 3.005-.978 4.508-.113.524-3.412 1.085-4.026 1.262.614.177 3.913.738 4.026 1.262l.977 4.509c.327-1.503.652-3.006.978-4.51.113-.523 3.412-1.084 4.025-1.26-.613-.178-3.912-.739-4.025-1.263-.326-1.503-.651-3.006-.978-4.508" id="path407"/><path style="fill:#fff;fill-rule:evenodd;stroke:#fff;stroke-width:.0268263px;stroke-miterlimit:10" d="m62.665 67.224-.978 4.509c-.114.524-3.412 1.085-4.026 1.262.614.177 3.913.737 4.026 1.261l.978 4.51c.325-1.504.65-3.007.977-4.51.113-.524 3.412-1.084 4.025-1.261-.613-.177-3.912-.738-4.025-1.262l-.977-4.509" id="path409"/><path style="fill:#fff;fill-rule:evenodd;stroke:#fff;stroke-width:.0268263px;stroke-miterlimit:10" d="m76.667 67.235-.978 4.51c-.113.524-3.412 1.084-4.026 1.261.614.177 3.913.738 4.026 1.262l.978 4.509.977-4.509c.114-.524 3.413-1.085 4.026-1.262-.613-.177-3.912-.737-4.026-1.261l-.977-4.51" id="path411"/><path style="fill:#fff;fill-rule:evenodd;stroke:#fff;stroke-width:.0268263px;stroke-miterlimit:10" d="m90.675 67.235-.976 4.51c-.114.524-3.412 1.084-4.026 1.261.614.177 3.912.738 4.026 1.262l.976 4.509.979-4.509c.113-.524 3.412-1.085 4.025-1.262-.613-.177-3.912-.737-4.025-1.261l-.979-4.51" id="path413"/><path style="fill:#fff;fill-rule:evenodd;stroke:#fff;stroke-width:.0268263px;stroke-miterlimit:10" d="m104.685 67.235-.977 4.51c-.114.524-3.413 1.084-4.027 1.261.614.177 3.913.738 4.027 1.262.325 1.503.65 3.006.977 4.509l.978-4.509c.113-.524 3.412-1.085 4.026-1.262-.614-.177-3.913-.737-4.026-1.261-.327-1.503-.652-3.007-.978-4.51" id="path415"/><path style="fill:#fff;fill-rule:evenodd;stroke:#fff;stroke-width:.0268263px;stroke-miterlimit:10" d="m132.69 83.374-.978 4.51c-.113.523-3.412 1.084-4.025 1.26.613.178 3.912.739 4.025 1.262.327 1.503.653 3.006.978 4.51l.977-4.51c.114-.523 3.413-1.084 4.026-1.261-.613-.177-3.912-.738-4.026-1.262l-.977-4.509" id="path417"/><path style="fill:#fff;fill-rule:evenodd;stroke:#fff;stroke-width:.0268263px;stroke-miterlimit:10" d="M132.704 67.235c-.327 1.503-.652 3.007-.978 4.51-.113.524-3.412 1.084-4.025 1.261.613.177 3.912.738 4.025 1.262l.978 4.509.977-4.509c.113-.524 3.412-1.085 4.026-1.262-.614-.177-3.913-.737-4.026-1.261a7487.47 7487.47 0 0 1-.977-4.51" id="path419"/><path style="fill:#fff;fill-rule:evenodd;stroke:#fff;stroke-width:.0268263px;stroke-miterlimit:10" d="m118.681 83.374-.977 4.51c-.114.523-3.412 1.084-4.027 1.26.614.178 3.913.739 4.027 1.262l.977 4.51.977-4.51c.114-.523 3.413-1.084 4.026-1.261-.613-.177-3.912-.738-4.026-1.262-.325-1.503-.65-3.006-.977-4.509" id="path421"/><path style="fill:#fff;fill-rule:evenodd;stroke:#fff;stroke-width:.0268263px;stroke-miterlimit:10" d="M118.694 67.235a7487.47 7487.47 0 0 1-.978 4.51c-.113.524-3.412 1.084-4.025 1.261.613.177 3.912.738 4.025 1.262l.978 4.509.977-4.509c.114-.524 3.412-1.085 4.026-1.262-.614-.177-3.912-.737-4.026-1.261l-.977-4.51" id="path423"/><path style="fill:#fff;fill-rule:evenodd;stroke:#fff;stroke-width:.0268263px;stroke-miterlimit:10" d="m76.667 51.078-.978 4.509c-.113.523-3.412 1.084-4.026 1.262.614.176 3.913.737 4.026 1.26l.978 4.51.977-4.51c.114-.523 3.413-1.084 4.026-1.26-.613-.178-3.912-.739-4.026-1.262l-.977-4.51" id="path425"/><path style="fill:#fff;fill-rule:evenodd;stroke:#fff;stroke-width:.0268263px;stroke-miterlimit:10" d="m62.657 51.078-.977 4.509c-.113.523-3.412 1.084-4.026 1.262.614.176 3.913.737 4.026 1.26l.977 4.51.978-4.51c.114-.523 3.412-1.084 4.026-1.26-.614-.178-3.912-.739-4.026-1.262l-.978-4.51" id="path427"/><path style="fill:#fff;fill-rule:evenodd;stroke:#fff;stroke-width:.0268263px;stroke-miterlimit:10" d="m104.681 51.078-.976 4.509c-.114.523-3.413 1.084-4.027 1.262.614.176 3.913.737 4.027 1.26l.976 4.51.979-4.51c.113-.523 3.412-1.084 4.025-1.26-.613-.178-3.912-.739-4.025-1.262l-.979-4.51" id="path429"/><path style="fill:#fff;fill-rule:evenodd;stroke:#fff;stroke-width:.0268263px;stroke-miterlimit:10" d="M90.67 51.078c-.327 1.503-.653 3.005-.978 4.509-.113.523-3.412 1.084-4.026 1.262.614.176 3.913.737 4.026 1.26l.977 4.51c.327-1.503.652-3.006.978-4.51.113-.523 3.412-1.084 4.025-1.26-.613-.178-3.912-.739-4.025-1.262l-.978-4.51" id="path431"/><path style="fill:#fff;fill-rule:evenodd;stroke:#fff;stroke-width:.0268263px;stroke-miterlimit:10" d="m62.665 34.908-.978 4.509c-.113.524-3.412 1.085-4.026 1.262.614.177 3.912.738 4.026 1.261l.978 4.51c.325-1.504.65-3.007.977-4.51.113-.523 3.412-1.084 4.025-1.261-.613-.177-3.912-.738-4.025-1.262l-.977-4.509" id="path433"/><path style="fill:#fff;fill-rule:evenodd;stroke:#fff;stroke-width:.0268263px;stroke-miterlimit:10" d="m76.667 34.92-.978 4.509c-.113.524-3.412 1.085-4.026 1.261.614.177 3.913.738 4.026 1.262l.978 4.509.977-4.509c.114-.524 3.413-1.085 4.026-1.262-.613-.176-3.912-.737-4.026-1.261l-.977-4.51" id="path435"/><path style="fill:#fff;fill-rule:evenodd;stroke:#fff;stroke-width:.0268263px;stroke-miterlimit:10" d="m90.675 34.92-.976 4.509c-.114.524-3.412 1.085-4.026 1.261.614.177 3.912.738 4.026 1.262l.976 4.509.979-4.509c.113-.524 3.412-1.085 4.025-1.262-.613-.176-3.912-.737-4.025-1.261l-.979-4.51" id="path437"/><path style="fill:#fff;fill-rule:evenodd;stroke:#fff;stroke-width:.0268263px;stroke-miterlimit:10" d="m104.685 34.92-.977 4.509c-.114.524-3.413 1.085-4.027 1.261.614.177 3.913.738 4.027 1.262.325 1.503.65 3.006.977 4.509l.978-4.509c.113-.524 3.412-1.085 4.026-1.262-.614-.176-3.913-.737-4.026-1.261-.327-1.503-.652-3.006-.978-4.51" id="path439"/><path style="fill:#fff;fill-rule:evenodd;stroke:#fff;stroke-width:.0268263px;stroke-miterlimit:10" d="M132.69 51.059c-.325 1.503-.651 3.005-.978 4.508-.113.524-3.412 1.085-4.025 1.262.613.177 3.912.738 4.025 1.262l.978 4.509.977-4.51c.114-.523 3.413-1.084 4.026-1.26-.613-.178-3.912-.739-4.026-1.263l-.977-4.508" id="path441"/><path style="fill:#fff;fill-rule:evenodd;stroke:#fff;stroke-width:.0268263px;stroke-miterlimit:10" d="m132.704 34.92-.978 4.509c-.113.524-3.412 1.085-4.025 1.261.613.177 3.912.738 4.025 1.262l.978 4.509.977-4.509c.113-.524 3.412-1.085 4.026-1.262-.614-.176-3.913-.737-4.026-1.261l-.977-4.51" id="path443"/><path style="fill:#fff;fill-rule:evenodd;stroke:#fff;stroke-width:.0268263px;stroke-miterlimit:10" d="m118.681 51.059-.977 4.508c-.114.524-3.412 1.085-4.027 1.262.614.177 3.913.738 4.027 1.262l.977 4.509.977-4.51c.114-.523 3.413-1.084 4.026-1.26-.613-.178-3.912-.739-4.026-1.263-.325-1.503-.65-3.005-.977-4.508" id="path445"/><path style="fill:#fff;fill-rule:evenodd;stroke:#fff;stroke-width:.0268263px;stroke-miterlimit:10" d="m118.694 34.92-.978 4.509c-.113.524-3.412 1.085-4.025 1.261.613.177 3.912.738 4.025 1.262l.978 4.509.977-4.509c.114-.524 3.412-1.085 4.026-1.262-.614-.176-3.912-.737-4.026-1.261l-.977-4.51" id="path447"/><path style="fill:#fff;fill-rule:evenodd;stroke:#fff;stroke-width:.0268263px;stroke-miterlimit:10" d="m34.629 131.882-.977 4.51c-.113.523-3.412 1.084-4.026 1.261.614.177 3.913.738 4.026 1.262l.977 4.509.977-4.509c.114-.524 3.413-1.085 4.026-1.262-.613-.177-3.912-.738-4.026-1.261-.325-1.504-.65-3.006-.977-4.51" id="path449"/><path style="fill:#fff;fill-rule:evenodd;stroke:#fff;stroke-width:.0268263px;stroke-miterlimit:10" d="m34.656 115.732-.977 4.51c-.114.523-3.412 1.083-4.026 1.26.614.178 3.912.74 4.026 1.263l.977 4.508.978-4.508c.113-.524 3.412-1.085 4.025-1.262-.613-.178-3.912-.738-4.025-1.262l-.978-4.509" id="path451"/><path style="fill:#fff;fill-rule:evenodd;stroke:#fff;stroke-width:.0268263px;stroke-miterlimit:10" d="m34.672 99.547-.977 4.51c-.113.523-3.412 1.084-4.026 1.261.614.177 3.913.738 4.026 1.262l.977 4.509.978-4.509c.114-.524 3.413-1.085 4.026-1.262-.614-.177-3.912-.738-4.026-1.261-.326-1.503-.651-3.007-.978-4.51" id="path453"/><path style="fill:#fff;fill-rule:evenodd;stroke:#fff;stroke-width:.0268263px;stroke-miterlimit:10" d="M34.64 163.028c-.327 1.503-.652 3.006-.978 4.51-.113.524-3.412 1.084-4.026 1.26.614.178 3.913.74 4.026 1.264l.977 4.507.978-4.507c.113-.525 3.412-1.086 4.025-1.263-.613-.177-3.912-.737-4.025-1.26l-.978-4.51" id="path455"/><path style="fill:#fff;fill-rule:evenodd;stroke:#fff;stroke-width:.0268263px;stroke-miterlimit:10" d="M34.64 179.187c-.327 1.502-.652 3.005-.978 4.508-.113.524-3.412 1.085-4.026 1.262.614.177 3.913.737 4.026 1.262l.977 4.509.978-4.51c.113-.524 3.412-1.084 4.025-1.261-.613-.177-3.912-.738-4.025-1.262l-.978-4.508" id="path457"/><path style="fill:#fff;fill-rule:evenodd;stroke:#fff;stroke-width:.0268263px;stroke-miterlimit:10" d="M34.64 195.345c-.327 1.502-.652 3.006-.978 4.509-.113.523-3.412 1.084-4.026 1.26.614.178 3.913.739 4.026 1.262l.977 4.51.978-4.51c.113-.523 3.412-1.084 4.025-1.262-.613-.176-3.912-.737-4.025-1.26l-.978-4.51" id="path459"/><path style="fill:#fff;fill-rule:evenodd;stroke:#fff;stroke-width:.0268263px;stroke-miterlimit:10" d="m34.64 148.024-.978 4.51c-.113.524-3.412 1.084-4.026 1.262.614.176 3.913.737 4.026 1.262l.977 4.507.978-4.507c.113-.525 3.412-1.085 4.025-1.262-.613-.178-3.912-.738-4.025-1.262l-.978-4.51" id="path461"/><path style="fill:#fff;fill-rule:evenodd;stroke:#fff;stroke-width:.0268263px;stroke-miterlimit:10" d="m34.65 83.39-.978 4.508c-.113.524-3.412 1.085-4.026 1.262.614.177 3.912.738 4.026 1.262l.977 4.509.978-4.51c.113-.523 3.412-1.084 4.026-1.26-.614-.178-3.913-.739-4.026-1.263l-.978-4.508" id="path463"/><path style="fill:#fff;fill-rule:evenodd;stroke:#fff;stroke-width:.0268263px;stroke-miterlimit:10" d="M34.64 67.235c-.327 1.503-.652 3.007-.978 4.51-.113.524-3.412 1.084-4.026 1.261.614.177 3.913.738 4.026 1.262l.977 4.509.978-4.509c.113-.524 3.412-1.085 4.025-1.262-.613-.177-3.912-.737-4.025-1.261l-.978-4.51" id="path465"/><path style="fill:#fff;fill-rule:evenodd;stroke:#fff;stroke-width:.0268263px;stroke-miterlimit:10" d="m34.65 51.074-.978 4.509c-.113.523-3.412 1.084-4.026 1.262.614.176 3.913.738 4.026 1.261l.977 4.51.978-4.51c.113-.523 3.412-1.085 4.026-1.261-.614-.178-3.913-.739-4.026-1.262l-.978-4.51" id="path467"/><path style="fill:#fff;fill-rule:evenodd;stroke:#fff;stroke-width:.0268263px;stroke-miterlimit:10" d="m34.64 34.92-.978 4.509c-.113.524-3.412 1.085-4.026 1.261.614.177 3.913.738 4.026 1.262l.977 4.509.978-4.509c.113-.524 3.412-1.085 4.025-1.262-.613-.176-3.912-.737-4.025-1.261l-.978-4.51" id="path469"/><path style="fill:#fff;fill-rule:evenodd;stroke:#fff;stroke-width:.0268263px;stroke-miterlimit:10" d="m48.638 131.882-.977 4.51c-.114.523-3.412 1.084-4.026 1.261.614.177 3.912.738 4.026 1.262l.977 4.509.978-4.509c.113-.524 3.412-1.085 4.026-1.262-.614-.177-3.913-.738-4.026-1.261l-.978-4.51" id="path471"/><path style="fill:#fff;fill-rule:evenodd;stroke:#fff;stroke-width:.0268263px;stroke-miterlimit:10" d="m48.665 115.732-.977 4.51c-.114.523-3.412 1.083-4.026 1.26.614.178 3.912.74 4.026 1.263l.977 4.508.978-4.508c.113-.524 3.412-1.085 4.025-1.262-.613-.178-3.912-.738-4.025-1.262l-.978-4.509" id="path473"/><path style="fill:#fff;fill-rule:evenodd;stroke:#fff;stroke-width:.0268263px;stroke-miterlimit:10" d="m48.682 99.547-.977 4.51c-.114.523-3.413 1.084-4.027 1.261.614.177 3.913.738 4.027 1.262l.977 4.509.977-4.509c.114-.524 3.412-1.085 4.026-1.262-.614-.177-3.912-.738-4.026-1.261l-.977-4.51" id="path475"/><path style="fill:#fff;fill-rule:evenodd;stroke:#fff;stroke-width:.0268263px;stroke-miterlimit:10" d="m48.648 163.028-.977 4.51c-.113.524-3.412 1.084-4.026 1.26.614.178 3.912.74 4.026 1.264l.977 4.507.977-4.507c.114-.525 3.413-1.086 4.027-1.263-.614-.177-3.913-.737-4.027-1.26-.325-1.505-.65-3.008-.977-4.51" id="path477"/><path style="fill:#fff;fill-rule:evenodd;stroke:#fff;stroke-width:.0268263px;stroke-miterlimit:10" d="m48.648 179.187-.977 4.508c-.113.524-3.412 1.085-4.026 1.262.614.177 3.913.737 4.026 1.262l.977 4.509.977-4.51c.114-.524 3.413-1.084 4.027-1.261-.614-.177-3.913-.738-4.027-1.262-.325-1.503-.65-3.006-.977-4.508" id="path479"/><path style="fill:#fff;fill-rule:evenodd;stroke:#fff;stroke-width:.0268263px;stroke-miterlimit:10" d="m48.648 195.345-.977 4.509c-.113.523-3.412 1.084-4.026 1.26.614.178 3.913.739 4.026 1.262l.977 4.51.977-4.51c.114-.523 3.413-1.084 4.027-1.262-.614-.176-3.913-.737-4.027-1.26-.325-1.503-.65-3.007-.977-4.51" id="path481"/><path style="fill:#fff;fill-rule:evenodd;stroke:#fff;stroke-width:.0268263px;stroke-miterlimit:10" d="m48.648 148.024-.977 4.51c-.113.524-3.412 1.084-4.026 1.262.614.177 3.913.737 4.026 1.262l.977 4.507.977-4.507c.114-.525 3.413-1.086 4.027-1.262-.614-.178-3.913-.738-4.027-1.262-.325-1.504-.65-3.006-.977-4.51" id="path483"/><path style="fill:#fff;fill-rule:evenodd;stroke:#fff;stroke-width:.0268263px;stroke-miterlimit:10" d="m48.658 83.39-.977 4.508c-.113.524-3.412 1.085-4.026 1.262.614.177 3.913.738 4.026 1.262l.977 4.509.978-4.51c.114-.523 3.412-1.084 4.026-1.26-.614-.178-3.912-.739-4.026-1.263l-.978-4.508" id="path485"/><path style="fill:#fff;fill-rule:evenodd;stroke:#fff;stroke-width:.0268263px;stroke-miterlimit:10" d="m48.648 67.235-.977 4.51c-.113.524-3.412 1.084-4.026 1.261.614.177 3.913.738 4.026 1.262l.977 4.509.977-4.509c.114-.524 3.413-1.085 4.027-1.262-.614-.177-3.913-.737-4.027-1.261-.325-1.503-.65-3.007-.977-4.51" id="path487"/><path style="fill:#fff;fill-rule:evenodd;stroke:#fff;stroke-width:.0268263px;stroke-miterlimit:10" d="m48.658 51.074-.977 4.509c-.113.523-3.412 1.084-4.026 1.262.614.176 3.913.738 4.026 1.261l.977 4.51.978-4.51c.114-.523 3.412-1.085 4.026-1.261-.614-.178-3.912-.739-4.026-1.262l-.978-4.51" id="path489"/><path style="fill:#fff;fill-rule:evenodd;stroke:#fff;stroke-width:.0268263px;stroke-miterlimit:10" d="m48.648 34.92-.977 4.509c-.113.524-3.412 1.085-4.026 1.261.614.177 3.913.738 4.026 1.262l.977 4.509.977-4.509c.114-.524 3.413-1.085 4.027-1.262-.614-.176-3.913-.737-4.027-1.261-.325-1.503-.65-3.006-.977-4.51" id="path491"/><path style="fill:none;stroke:#fb0f0c;stroke-width:1.28766px;stroke-miterlimit:10" d="M8.372 6.644c-2.352 0-1.5 6.418-1.5 7.7v215.909c0 1.752-.667 5.486 1.923 5.486H158.01c2.748 0 2.212-2.936 2.212-4.916V15.101c0-2.043.468-4.718 0-6.726 0-2.978-8.457-1.731-10.124-1.731H8.372" id="path493"/></g></svg>